<svg xmlns="http://www.w3.org/2000/svg" version="1.2" baseProfile="tiny" width="436" height="356" viewBox="41 16 218 178"><path d="M 45,150 L45,70 100,20 155,70 155,150" stroke-width="4" stroke="black" fill="rgb(255,128,128)" fill-opacity="1" ></path><path d="m 87,135 v -11 l 6,-5 V 65 l 7,-10 7,10 v 54 l 6,5 v 11 l -13,-10 z" stroke-width="3" stroke="black" fill="rgb(255,255,128)" ></path><g transform="translate(175,140)" ><g transform="scale(0.09)" ><path d="M637.7 479.52H0V.37h637.7z" stroke-width="4" stroke="rgba(0,0,0,0)" fill="#fff" ></path><path d="M0 107.17v265.55h637.7V107.17zm192.02 25.13c61.4 0 111.18 48.17 111.2 107.7v-.05.09-.05c-.02 59.52-49.7 107.79-111.2 107.79-61.51 0-111.2-48.3-111.2-107.83 0-59.55 49.69-107.65 111.2-107.65m2.44 20.72-21.29 62.27-66.57.18 53.44 38.17-21.37 62.16 54.38-38.72 53.45 38.16-19.97-61.98 54.29-38.63-66.58.37z" stroke-width="4" stroke="rgba(0,0,0,0)" fill="#c60000" ></path><path d="M640 .46H-2.3V87.1H640Zm0 392.33H0v86.73h640z" stroke-width="4" stroke="rgba(0,0,0,0)" fill="#3e5698" ></path></g></g></svg>