<svg xmlns="http://www.w3.org/2000/svg" version="1.2" baseProfile="tiny" width="436" height="356" viewBox="41 16 218 178"><path d="M 45,150 L45,70 100,20 155,70 155,150" stroke-width="4" stroke="black" fill="rgb(255,128,128)" fill-opacity="1" ></path><path d="m 126,107 c -4,2 -10,3 -16,3 l 10,10 h 10 z  m -6,-27 -9,9.4 c 5,0.6 11,1.7 15,3.2 L 130,80 Z  m 15,20 c 0,6 -16,11 -35,11 -19.3,0 -35,-5 -35,-11 0,-6.1 15.7,-11.1 35,-11.1 19,0 35,5 35,11.1 z" stroke-width="3" stroke="black" fill="black" ></path><g transform="translate(175,140)" ><g transform="scale(0.09)" ><path d="M0 0h640v480H0z" stroke-width="4" stroke="rgba(0,0,0,0)" fill="#fff" ></path><path d="M0 160h640v320H0z" stroke-width="4" stroke="rgba(0,0,0,0)" fill="#0039a6" ></path><path d="M0 320h640v160H0z" stroke-width="4" stroke="rgba(0,0,0,0)" fill="#d52b1e" ></path></g></g></svg>