<svg xmlns="http://www.w3.org/2000/svg" version="1.2" baseProfile="tiny" width="504" height="384" viewBox="24 24 252 192"><path d="M 100,28 L172,100 100,172 28,100 100,28 Z" stroke-width="4" stroke="black" fill="rgb(255,128,128)" fill-opacity="1" ></path><path d="M60,70L140,130M60,130L140,70" stroke-width="3" stroke="black" fill="black" ></path><path d="M125,80 C150,80 150,120 125,120 L75,120 C50,120 50,80 75,80 Z" stroke-width="3" stroke="black" fill="none" ></path><circle cx="75" cy="130" r="7" stroke-width="3" stroke="black" fill="none" ></circle><circle cx="100" cy="130" r="7" stroke-width="3" stroke="black" fill="none" ></circle><circle cx="125" cy="130" r="7" stroke-width="3" stroke="black" fill="none" ></circle><g transform="translate(192,140)" ><g transform="scale(0.09)" ><path d="M640 481.28H0V0h640z" stroke-width="4" stroke="rgba(0,0,0,0)" fill="#fff" ></path><path d="M640 108.29H0V45.12h640zm0 329.47H0v-63.17h640Zm-429.68-258.5 103.49 180.1L419.56 180.1l-209.24-.75Z" stroke-width="4" stroke="rgba(0,0,0,0)" fill="#0038b8" ></path><path d="m209.94 301.36 103.59-180.1 105.65 179.35Z" stroke-width="4" stroke="rgba(0,0,0,0)" fill="#0038b8" ></path><path d="M294.35 180.1 314 146.73l20.11 33.28-39.85.1zm-41.17 74.73-20.4 33.84 38.54-.09-18.14-33.84zm-20.02-62.5 38.73.28-18.62 34.12zm142.13 62.97 19.64 33.37-39.2-.47zm19.27-62.98-38.73.29 18.61 34.12zm-107.45 0-26.7 48.32 27.08 47.28 49.63 1.13 30.08-48.41-27.82-48.88-52.27.47zm7.24 106.41L314 332.1l20.11-33.18-39.85-.19z" stroke-width="4" stroke="rgba(0,0,0,0)" fill="#fff" ></path></g></g></svg>