<svg xmlns="http://www.w3.org/2000/svg" version="1.2" baseProfile="tiny" width="504" height="384" viewBox="24 24 252 192"><path d="M 100,28 L172,100 100,172 28,100 100,28 Z" stroke-width="4" stroke="black" fill="rgb(255,128,128)" fill-opacity="1" ></path><text x="100" y="103" text-anchor="middle" font-size="45" font-family="Arial" font-weight="bold" dominant-baseline="middle" stroke-width="3" stroke="none" fill="black" ></text><path d="M50,80 l100,0 " stroke-width="3" stroke="black" fill="none" ></path><g transform="translate(192,140)" ><g transform="scale(0.09)" ><path d="M0 0h640v480H0z" stroke-width="4" stroke="rgba(0,0,0,0)" fill="#ee1c25" ></path><path d="M249.37 25.78 238.3 38.66l-16.52-7.55 9.46 15.79-11.54 13.44 17.3-3.84 9.45 15.79 1.13-18.13 16.58-3.68-15.9-7.26zM120 48l-16.8 50.4H48l44.9 30.88-16.1 48.32 43.2-29.7 43.2 29.7-16.1-48.32L192 98.4h-55.2zm157.49 25.06 2.6 18.21-15.85 7.92 17.42 3.17 2.6 18.22 8.07-16.28 16.7 3.05-11.82-12.86 7.77-15.65-15.2 7.58zm10.19 69.89-5.06 17.68-17.7.77 14.62 10-5.06 17.7 14.01-11.57 14.01 9.6-5.56-16.57 13.48-11.13-16.96.74zm-38.3 49.81-11.5 14.37-16.61-6.13 9.61 14.87-11.5 14.37 17.39-5.26 9.22 14.26 1.27-17.43 16.73-5.05-15.93-5.88z" stroke-width="4" stroke="rgba(0,0,0,0)" fill="#ff0" ></path></g></g></svg>