<svg xmlns="http://www.w3.org/2000/svg" version="1.2" baseProfile="tiny" width="504" height="384" viewBox="24 24 252 192"><path d="M 100,28 L172,100 100,172 28,100 100,28 Z" stroke-width="4" stroke="black" fill="rgb(255,128,128)" fill-opacity="1" ></path><g transform="translate(192,140)" ><g transform="scale(0.09)" ><path d="M0 160h640v160H0z" stroke-width="4" stroke="rgba(0,0,0,0)" fill="#fff" ></path><path d="M0 0h640v160H0z" stroke-width="4" stroke="rgba(0,0,0,0)" fill="#ce1126" ></path><path d="M0 320h640v160H0z" stroke-width="4" stroke="rgba(0,0,0,0)" fill="#000" ></path><path d="M323.47 197.65c4.38 2.28 7.89 5.6 13.32 7-.7 2.11-2.63 2.99-3.16 5.26v47.3c5.96 1.23 7.19-2.1 9.99-4.03.87 7.54 5.6 15.07 5.43 21.03h-25.58zM216.61 282.8a3.5 3.5 0 0 1-3.5 3.5 3.5 3.5 0 0 1-3.5-3.5 3.5 3.5 0 0 1 3.5-3.5 3.5 3.5 0 0 1 3.5 3.5m174.3-72.17a8.76 8.76 0 0 1-2.45-1.76c-.52-.87-.17-.87 2.1-.35 4.04 1.23 6.66.7 9.3-1.4l2.27-1.93 2.63 1.23c1.57.88 3.15 1.4 3.5 1.23 1.23-.35 3.68-3.5 3.5-4.56 0-1.22 1.06-.87 1.76.53 1.05 2.8-.53 6.13-3.5 6.83-1.23.35-2.46.18-4.56-.53-2.46-.87-2.98-.87-4.2 0a9.46 9.46 0 0 1-10.34.7m10.17-9.29a14.01 14.01 0 0 1-1.75-7c.17-1.06.52-1.4 1.4-1.06 1.75.53 2.1 1.75 1.75 5.26 0 3.15-.53 4.03-1.4 2.8M282.65 198c-.17 2.28 4.2 8.06 6.14 9.11-1.4.53-2.98.35-4.2.88-7.02 7-32.24 31.53-36.8 37.49 13.67.35 28.73-.18 41.52-.7 0-9.29 8.76-9.81 14.72-13.14 2.98 4.73 10.5 4.38 11.56 11.56v30.83h-116.5a17 17 0 0 1-21.54 13.14c3.5-3.5 9.46-4.9 11.56-9.99 1.75-11.2-3.5-18.04-7.01-24.52a42.04 42.04 0 0 0 12.26-6.3c-4.03 12.26 10.86 11.03 21.73 10.68.35-4.2.17-9.11-2.98-9.81 4.03-1.58 4.73-2.1 11.56-7.71v16.82l80.76-.18c0-5.25 1.4-13.84-2.8-13.84-3.86 0 0 10.86-3.16 10.86h-62.54v-10.5c2.63-2.8 2.28-2.63 20.32-20.68 1.76-1.75 14.54-13.31 25.58-24zm156.1-.52c4.37 2.45 7.88 5.6 13.13 7-.52 2.28-2.63 3.16-3.15 5.43v47.3c5.95 1.23 7.36-2.27 10.16-4.03.7 7.54 5.6 14.9 5.25 21.03h-25.4v-76.56zm-34 25.4s9.3-7.89 9.3-8.24v41.17h6.65l-.18-46.07c2.63-2.8 8.06-6.66 9.29-9.46v73.58H371.3c-.88-15.24-1.05-31.01 16.81-27.68v-6.13c-.52-1.06-1.57.17-1.75-1.23 2.8-2.8 3.68-3.5 11.39-10.16l.17 27.15h6.84zm-22.07 32.58c1.23 1.75 5.61 1.75 5.26-1.4-.53-2.63-6.13-1.75-5.26 1.4" stroke-width="4" stroke="rgba(0,0,0,0)" fill="#007a3d" ></path></g></g><path d="m 95.3,55 h 9.7 v 6.8 h 7 v 9.4 h -7 V 78 h -9.7 v -6.8 h -6.8 v -9.4 h 6.8 z" stroke-width="3" stroke="none" fill="black" ></path><text x="100" y="103" text-anchor="middle" font-size="35" font-family="Arial" font-weight="bold" dominant-baseline="middle" stroke-width="4" stroke="none" fill="black" >WIA</text></svg>