<svg xmlns="http://www.w3.org/2000/svg" version="1.2" baseProfile="tiny" width="504" height="384" viewBox="24 24 252 192"><path d="M 100,28 L172,100 100,172 28,100 100,28 Z" stroke-width="4" stroke="black" fill="rgb(255,128,128)" fill-opacity="1" ></path><g transform="translate(192,140)" ><g transform="scale(0.09)" ><path d="M0 0h640v480H0Z" stroke-width="4" stroke="rgba(0,0,0,0)" fill="#fff" ></path><path d="M15.5 318.28v4.03H0V480h640V322.31h-13.81v-4.03h-5.63v4.03h-32.25v-4.03h-5.62v4.03h-33.1v-4.03h-5.62v4.03h-30.75v-4.03h-5.63v4.03H474.5v-4.03h-5.62v4.03h-32.63v-4.03h-5.62v4.03H399.5v-4.03h-5.72l.04 4.03h-33.04v-4.03h-5.62v4.03H322.9v-4.03h-5.63v4.03h-32.34v-4.03h-5.63v4.03h-31.87v-4.03h-5.63v4.03H209.1v-4.03h-5.62v4.03h-31.88v-4.03h-5.62v4.03h-32.25v-4.03h-5.63v4.03H95.37v-4.03h-5.62v4.03H57.88v-4.03h-5.63v4.03H21.13v-4.03z" stroke-width="4" stroke="rgba(0,0,0,0)" fill="#da0000" ></path><path d="M0 0v157.69h15.5v4.6h5.63v-4.6h31.12v4.6h5.63v-4.6h31.87v4.6h5.63v-4.6h32.71v4.6h5.63v-4.6h32.25v4.6h5.62v-4.6h31.88v4.6h5.62v-4.6h32.72v4.6h5.63v-4.6h31.87v4.6h5.63v-4.6h32.34v4.6h5.63v-4.6h32.25v4.6h5.62v-4.6h33.05l.05 4.6h5.62v-4.6h31.13v4.6h5.62v-4.6h32.63v4.6h5.62v-4.6h33.1v4.6h5.62v-4.6h30.75v4.6h5.62v-4.6h33.1v4.6h5.62v-4.6h32.25v4.6h5.63v-4.6H640V0Z" stroke-width="4" stroke="rgba(0,0,0,0)" fill="#239f40" ></path><path d="M0 134.44v3.19h30.13v-3.2zm35.19 0v7.51l-14.16.08v3.1h.1v8.25h9.19v-3.2h-6.1v-5.06h10.97v8.25h18.93v-18.93h-3.18v15.75h-4.78v-15.75h-3.1v15.75h-4.69v-15.75zm24.56 0v3.19h45.94v-3.2zm51 0v7.51l-14.16.08v3.1h.08l-.08 8.24H105.88v-3.18h-6.2v-5.06h11.07v8.25H129.69v-18.94h-3.19v15.75h-4.78v-15.75h-3.1v15.75h-4.68v-15.75zm23.9 0v3.19h45.94v-3.2zm51.1 0v7.51l-14.25.08v3.1h.1v8.25h9.18v-3.2h-6v-5.06h10.97v8.25h18.84v-18.93h-3.18v15.75h-4.7v-15.75h-3.18l-.08 15.75h-4.51v-15.75zm24.28 0 .1 3.19h45.93v-3.2zm51.1 0v7.51l-14.16.08v11.35h9.19v-3.2h-6v-5.06h10.97v8.25h18.93v-18.93h-3.19v15.75h-4.78v-15.75h-3.18v15.75h-4.6v-15.75zm24.65 0v3.19h45.94v-3.2zm51.1 0v7.51l-14.25.08v3.1h.09v8.25h9.19v-3.2h-6v-5.06h10.96v8.25H355.73v-18.93h-3.19v15.75h-4.69v-15.75h-3.18v15.75h-4.7v-15.75zm25.03 0v3.19h45.93v-3.2zm51.09 0v7.51l-14.25.08v11.35h9.28v-3.2h-6v-5.06H413v8.25h18.84v-18.93h-3.09v15.75h-4.78v-15.75h-3.19v15.75h-4.69v-15.75zm24.56 0v3.19h45.94v-3.2zm51.1 0v7.51l-14.16.08V153.38h9.29v-3.2h-6.1v-5.06h10.97v8.25h18.84v-18.93h-3.1v15.75h-4.77v-15.75h-3.2v15.75h-4.59v-15.75zm24.65 0v3.19h45.94v-3.2zm51 0v7.51l-14.15.08v11.34h9.28v-3.18h-6.1v-5.07h10.97v8.25H583.25v-18.93h-3.19v15.75h-4.78v-15.75h-3.1v15.75h-4.68v-15.75zm25.13 0v3.19h45.93v-3.2zm-588.38 7.5H0v11.44h14.38v-11.35h-9v3.1h5.9v5.06H1.06v-7.4zm75.57 0-16.88.1v3.08h.1v8.25h3.09v-8.25h10.5v8.25h16.59v-10.59h-.1v-.75h-9v3.1h5.91v5.06H76.62v-7.4zm74.9 0-16.87.1v3.08h.09v8.25h3.19v-8.25h10.4v8.25h16.6v-11.34h-9v3.1h5.81v5.06h-10.22v-7.4zm75.38 0-16.78.1v11.33h3.18v-8.25h10.5v8.25h16.5v-11.34h-9v3.1h5.81v5.06h-10.21v-7.4zm75.75 0-16.88.1v3.08h.1v8.25h3.09v-8.25h10.48l-.08 8.25h16.69v-11.34h-9.19v3.1h6v5.06h-10.21v-7.4zm76.12 0-16.87.1v3.09h.09v8.25h3.19v-8.25h10.4v8.25h16.6v-11.35h-9v3.1H389v5.06h-10.22v-7.4zm75.66 0-16.78.1v11.33h3.18v-8.25h10.43l.07 8.25h16.5v-11.34h-9.09v3.1h5.9v5.06h-10.21v-7.4zm75.75 0-16.88.1v11.33h3.19v-8.25H527v8.25h16.5v-11.34h-9v3.1h5.9v5.06H530.2v-7.4zm76.12 0-16.87.1v3.08h.1v8.25h3.08v-8.25h10.5v8.25h16.6v-10.59h-.1v-.75h-9v3.1h5.91v5.06h-10.22v-7.4zm33.69.02-13.72.07v3.1h.1v8.25h9.19v-3.2h-6.1v-5.06H640Zm-573.4 8.41v3h3.18v-3zm74.9 0v3h3.19v-3zm75.47 0v3h3.1v-3zm75.66 0v3h3.18v-3zm76.12 0v3h3.19v-3zm75.66 0v3h3.18v-3zm75.75 0v3h3.18v-3zm76.12 0v3h3.19v-3zM0 329.08v3.09h30.13v-3.1zm35.19 0v7.5H21.03v3.18h.1v8.16h9.18v-3.1l-6.1-.06v-5H35.2v8.06h.94v.1h17.43v-.1h.56v-18.75h-3.18v15.66h-4.78v-15.66h-3.1v15.66h-4.69v-15.66Zm24.56 0v3.09h45.94v-3.1zm51 0v7.5H96.59v3.18h.08l-.03 2.48-.05 5.58v.1H105.88v-3.1l-6.2-.06v-5h11.07v8.06h.94v.1h17.44v-.1h.56v-18.75h-3.19v15.66h-4.78v-15.66h-3.1v15.66h-4.68v-15.66Zm23.9 0v3.09h45.94v-3.1zm51.1 0v7.5H171.5v3.18h.1v8.16h9.18v-3.1l-6-.06v-5h10.97v8.06h.84v.1h17.44v-.1h.56v-18.75h-3.18v15.66h-4.7v-15.66h-3.18l-.08 15.66h-4.51v-15.66Zm24.28 0 .1 3.09h45.93v-3.1zm51.1 0v7.5h-14.16v11.34h9.19v-3.1l-6-.06v-5h10.97v8.06h.93v.1h17.44v-.1h.56v-18.75h-3.19v15.66h-4.78v-15.66h-3.18v15.66h-4.6v-15.66Zm24.65 0v3.09h45.94v-3.1zm51.1 0v7.5h-14.25v3.18h.09v8.16h9.19v-3.1l-6-.06v-5h10.96v8.06h.85v.1h17.44v-.1h.56v-18.75h-3.19v15.66h-4.69v-15.66h-3.18v15.66h-4.7v-15.66Zm25.03 0v3.09h45.93v-3.1zm51.09 0v7.5h-14.25v11.34h9.28v-3.1l-6-.06v-5H413v8.06h.84v.1h17.44v-.1h.56v-18.75h-3.09v15.66h-4.78v-15.66h-3.19v15.66h-4.69v-15.66Zm24.56 0v3.09h45.94v-3.1zm51.1 0v7.5H474.5v11.34h9.28v-3.1l-6.1-.06v-5h10.98v8.06h.84v.1h17.44v-.1h.56v-18.75h-3.1v15.66h-4.77v-15.66h-3.2v15.66h-4.59v-15.66Zm24.65 0v3.09h45.94v-3.1zm51 0v7.5h-14.15v11.34h9.28v-3.1l-6.1-.06v-5h10.97v8.06h.94v.1h17.44v-.1h.56v-18.75h-3.19v15.66h-4.78v-15.66h-3.1v15.66h-4.68v-15.66Zm25.13 0v3.09h45.93v-3.1ZM0 336.56v11.34h13.44v-.1h.94v-11.25h-9v3.19h5.9v4.97H1.06v-8.16zm59.75 0v3.18h.1v8.06h3.09v-8.06h10.5v8.06h1.4v.1H89v-.1h1.03v-10.4h-.1v-.85h-9v3.19h5.91v4.97H76.62v-8.16zm74.9 0v3.18h.1v8.06h3.19v-8.06h10.4v8.06h1.41v.1H164v-.1h.94v-11.25h-9v3.19h5.81v4.97h-10.22v-8.16zm75.47 0v11.24h3.2v-8.06h10.5v8.06h1.4v.1h14.16v-.1h.93v-11.25h-9v3.19h5.81v4.97h-10.21v-8.16zm75.66 0v3.18h.1v8.06h3.09v-8.06h10.48l-.08 8.06h1.5v.1h14.25v-.1h.94v-11.25h-9.19v3.19h6v4.97h-10.21v-8.16zm76.13 0v3.18h.09v8.06h3.19v-8.06h10.4v8.06H377v.1h14.25v-.1h.94v-11.25h-9v3.19H389v4.97h-10.22v-8.16zm75.75 0v11.24h3.18v-8.06h10.43l.07 8.06h1.41v.1h14.16v-.1h.93v-11.25h-9.09v3.19h5.9v4.97h-10.21v-8.16zm75.65 0v11.24h3.19v-8.06H527v8.06h1.4v.1h14.16v-.1h.94v-11.25h-9v3.19h5.9v4.97H530.2v-8.16zm76.13 0v3.18h.1v8.06h3.09v-8.06h10.5v8.06h1.4v.1h14.16v-.1h1.03v-10.4h-.1v-.85h-9v3.19h5.91v4.97h-10.22v-8.16zm36.84 0v3.18h.1v8.16h9.18v-3.1l-6.1-.06v-5H640v-3.19zM66.6 344.8v3.1h3.2v-3.1zm74.91 0v3.1h3.19v-3.1zm75.47 0v3.1h3.1v-3.1zm75.66 0v3.1h3.18v-3.1zm76.12 0v3.1h3.19v-3.1zm75.66 0v3.1h3.18v-3.1zm75.75 0v3.1h3.18v-3.1zm76.12 0v3.1h3.19v-3.1z" stroke-width="4" stroke="rgba(0,0,0,0)" fill="#fff" ></path><path d="M301.72 169.13C299 183 312.5 187.03 319.82 180c.65 3.56 20.15 8.06 17.8-10.5-3.09 7.5-12 7.22-17.8 3.84-7.88 4.41-15.29 3.28-18.1-4.22M320 182.16l-8.72 7.3 1.49 94.6-.36-.28c-47.07-35.25-22.6-88.87-14.72-98.62-12 8.25-24.19 28.5-24.38 51.37-.24 19.75 8.27 41.5 33.3 59.2-10.15 2.66-21.12 3.55-30.49 3.43 8.56 4.68 24.7 3.56 36.92 2.39l.02 1.36 7.32 7.96 7.3-8.43.01-.95c12.3 1.2 28.8 2.42 37.5-2.33-9.67.13-21.04-.82-31.44-3.69 24.75-17.64 33.18-39.28 32.94-58.94-.19-22.87-12.38-43.12-24.38-51.37 7.86 9.73 32.24 63.16-14.45 98.41l.86-93.73zm-27 .47C220.25 207 252.78 282.38 278.38 288A68.72 68.72 0 0 1 293 182.63m54 0A68.72 68.72 0 0 1 361.72 288c25.5-5.62 58.12-81-14.72-105.37" stroke-width="4" stroke="rgba(0,0,0,0)" fill="#da0000" ></path></g></g><path d="M60,70L140,130M60,130L140,70" stroke-width="3" stroke="black" fill="black" ></path><path d="M125,80 C150,80 150,120 125,120 L75,120 C50,120 50,80 75,80 Z" stroke-width="3" stroke="black" fill="none" ></path><path d="M55,72L55,128" stroke-width="3" stroke="black" fill="black" ></path></svg>