<svg xmlns="http://www.w3.org/2000/svg" version="1.2" baseProfile="tiny" width="516" height="296" viewBox="21 46 258 148"><path d="M25,50 l150,0 0,100 -150,0 z" stroke-width="4" stroke="black" fill="rgb(128,224,255)" fill-opacity="1" ></path><path d="M25,50 L175,150 M25,150 L175,50" stroke-width="3" stroke="black" fill="black" ></path><path d="M125,80 C150,80 150,120 125,120 L75,120 C50,120 50,80 75,80 Z" stroke-width="3" stroke="black" fill="none" ></path><circle cx="75" cy="130" r="7" stroke-width="3" stroke="black" fill="none" ></circle><circle cx="100" cy="130" r="7" stroke-width="3" stroke="black" fill="none" ></circle><circle cx="125" cy="130" r="7" stroke-width="3" stroke="black" fill="none" ></circle><g transform="translate(195,140)" ><g transform="scale(0.09)" ><path d="M0 320h640v160H0z" stroke-width="4" stroke="rgba(0,0,0,0)" fill="#ffce00" ></path><path d="M0 0h640v160H0z" stroke-width="4" stroke="rgba(0,0,0,0)" fill="#000" ></path><path d="M0 160h640v160H0z" stroke-width="4" stroke="rgba(0,0,0,0)" fill="#d00" ></path></g></g></svg>