<svg xmlns="http://www.w3.org/2000/svg" version="1.2" baseProfile="tiny" width="516" height="296" viewBox="21 46 258 148"><path d="M25,50 l150,0 0,100 -150,0 z" stroke-width="4" stroke="black" fill="rgb(128,224,255)" fill-opacity="1" ></path><text x="100" y="103" text-anchor="middle" font-size="45" font-family="Arial" font-weight="bold" dominant-baseline="middle" stroke-width="3" stroke="none" fill="black" ></text><path d="M25,80 l150,0 " stroke-width="3" stroke="black" fill="none" ></path><g transform="translate(195,140)" ><g transform="scale(0.09)" ><path d="M0 0h640v480H0" stroke-width="4" stroke="rgba(0,0,0,0)" fill="#bd3d44" ></path><path d="M0 36.8v37h640v-37zm0 73.7v37h640v-37zm0 74v37h640v-37zm0 74v37h640v-37zm0 74v37h640v-37zm0 74v37h640v-37z" stroke-width="4" stroke="rgba(0,0,0,0)" fill="#fff" ></path><path d="M0 0h364.8v258.5H0" stroke-width="4" stroke="rgba(0,0,0,0)" fill="#192f5d" ></path><path d="m30 11-3.33 10H16l8.56 6.33L21 38l9-6.65L39 38l-3.56-10.67L44 21H33.33Zm61 0-3.33 10H77l8.56 6.33L82 38l9-6.65 9 6.65-3.56-10.67L105 21H94.33Zm61 0-3.33 10H138l8.56 6.33L143 38l9-6.65 9 6.65-3.56-10.67L166 21h-10.67zm61 0-3.33 10H199l8.56 6.33L204 38l9-6.65 9 6.65-3.56-10.67L227 21h-10.67zm61 0-3.33 10H260l8.56 6.33L265 38l9-6.65 9 6.65-3.56-10.67L288 21h-10.67zm60 0-3.33 10H320l8.56 6.33L325 38l9-6.65 9 6.65-3.56-10.67L348 21h-10.67ZM61 37l-3.33 10H47l8.56 6.33L52 64l9-6.65L70 64l-3.56-10.67L75 47H64.33Zm61 0-3.33 10H108l8.56 6.33L113 64l9-6.65 9 6.65-3.56-10.67L136 47h-10.67zm61 0-3.33 10H169l8.56 6.33L174 64l9-6.65 9 6.65-3.56-10.67L197 47h-10.67zm60 0-3.33 10H229l8.56 6.33L234 64l9-6.65 9 6.65-3.56-10.67L257 47h-10.67zm61 0-3.33 10H290l8.56 6.33L295 64l9-6.65 9 6.65-3.56-10.67L318 47h-10.67ZM30 63l-3.33 10H16l8.56 6.33L21 90l9-6.65L39 90l-3.56-10.67L44 73H33.33Zm61 0-3.33 10H77l8.56 6.33L82 90l9-6.65 9 6.65-3.56-10.67L105 73H94.33Zm61 0-3.33 10H138l8.56 6.33L143 90l9-6.65 9 6.65-3.56-10.67L166 73h-10.67zm61 0-3.33 10H199l8.56 6.33L204 90l9-6.65 9 6.65-3.56-10.67L227 73h-10.67zm61 0-3.33 10H260l8.56 6.33L265 90l9-6.65 9 6.65-3.56-10.67L288 73h-10.67zm60 0-3.33 10H320l8.56 6.33L325 90l9-6.65 9 6.65-3.56-10.67L348 73h-10.67ZM61 89l-3.33 10H47l8.56 6.33L52 116l9-6.65 9 6.65-3.56-10.67L75 99H64.33Zm61 0-3.33 10H108l8.56 6.33L113 116l9-6.65 9 6.65-3.56-10.67L136 99h-10.67zm61 0-3.33 10H169l8.56 6.33L174 116l9-6.65 9 6.65-3.56-10.67L197 99h-10.67zm60 0-3.33 10H229l8.56 6.33L234 116l9-6.65 9 6.65-3.56-10.67L257 99h-10.67zm61 0-3.33 10H290l8.56 6.33L295 116l9-6.65 9 6.65-3.56-10.67L318 99h-10.67ZM30 115l-3.33 10H16l8.56 6.33L21 142l9-6.65 9 6.65-3.56-10.67L44 125H33.33Zm61 0-3.33 10H77l8.56 6.33L82 142l9-6.65 9 6.65-3.56-10.67L105 125H94.33Zm61 0-3.33 10H138l8.56 6.33L143 142l9-6.65 9 6.65-3.56-10.67L166 125h-10.67zm61 0-3.33 10H199l8.56 6.33L204 142l9-6.65 9 6.65-3.56-10.67L227 125h-10.67zm61 0-3.33 10H260l8.56 6.33L265 142l9-6.65 9 6.65-3.56-10.67L288 125h-10.67zm60 0-3.33 10H320l8.56 6.33L325 142l9-6.65 9 6.65-3.56-10.67L348 125h-10.67ZM61 141l-3.33 10H47l8.56 6.33L52 168l9-6.65 9 6.65-3.56-10.67L75 151H64.33Zm61 0-3.33 10H108l8.56 6.33L113 168l9-6.65 9 6.65-3.56-10.67L136 151h-10.67zm61 0-3.33 10H169l8.56 6.33L174 168l9-6.65 9 6.65-3.56-10.67L197 151h-10.67zm60 0-3.33 10H229l8.56 6.33L234 168l9-6.65 9 6.65-3.56-10.67L257 151h-10.67zm61 0-3.33 10H290l8.56 6.33L295 168l9-6.65 9 6.65-3.56-10.67L318 151h-10.67ZM30 166l-3.33 10H16l8.56 6.33L21 193l9-6.65 9 6.65-3.56-10.67L44 176H33.33Zm61 0-3.33 10H77l8.56 6.33L82 193l9-6.65 9 6.65-3.56-10.67L105 176H94.33Zm61 0-3.33 10H138l8.56 6.33L143 193l9-6.65 9 6.65-3.56-10.67L166 176h-10.67zm61 0-3.33 10H199l8.56 6.33L204 193l9-6.65 9 6.65-3.56-10.67L227 176h-10.67zm61 0-3.33 10H260l8.56 6.33L265 193l9-6.65 9 6.65-3.56-10.67L288 176h-10.67zm60 0-3.33 10H320l8.56 6.33L325 193l9-6.65 9 6.65-3.56-10.67L348 176h-10.67ZM61 192l-3.33 10H47l8.56 6.33L52 219l9-6.65 9 6.65-3.56-10.67L75 202H64.33Zm61 0-3.33 10H108l8.56 6.33L113 219l9-6.65 9 6.65-3.56-10.67L136 202h-10.67zm61 0-3.33 10H169l8.56 6.33L174 219l9-6.65 9 6.65-3.56-10.67L197 202h-10.67zm60 0-3.33 10H229l8.56 6.33L234 219l9-6.65 9 6.65-3.56-10.67L257 202h-10.67zm61 0-3.33 10H290l8.56 6.33L295 219l9-6.65 9 6.65-3.56-10.67L318 202h-10.67ZM30 218l-3.33 10H16l8.56 6.33L21 245l9-6.65 9 6.65-3.56-10.67L44 228H33.33Zm61 0-3.33 10H77l8.56 6.33L82 245l9-6.65 9 6.65-3.56-10.67L105 228H94.33Zm61 0-3.33 10H138l8.56 6.33L143 245l9-6.65 9 6.65-3.56-10.67L166 228h-10.67zm61 0-3.33 10H199l8.56 6.33L204 245l9-6.65 9 6.65-3.56-10.67L227 228h-10.67zm61 0-3.33 10H260l8.56 6.33L265 245l9-6.65 9 6.65-3.56-10.67L288 228h-10.67zm60 0-3.33 10H320l8.56 6.33L325 245l9-6.65 9 6.65-3.56-10.67L348 228h-10.67z" stroke-width="4" stroke="rgba(0,0,0,0)" fill="#fff" ></path></g></g></svg>