<svg xmlns="http://www.w3.org/2000/svg" version="1.2" baseProfile="tiny" width="436" height="316" viewBox="41 41 218 158"><path d="m 100,45 55,25 0,60 -55,25 -55,-25 0,-60 z" stroke-width="4" stroke="black" fill="rgb(128,224,255)" fill-opacity="1" ></path><g transform="translate(175,140)" ><g transform="scale(0.09)" ><path d="M-40 0h720v480H-40Z" stroke-width="4" stroke="rgba(0,0,0,0)" fill="#fff" ></path><path d="M469.26 240.02a149.2 149.2 0 0 1-149.2 149.2 149.2 149.2 0 0 1-149.21-149.2 149.2 149.2 0 0 1 149.2-149.2 149.2 149.2 0 0 1 149.2 149.2" stroke-width="4" stroke="rgba(0,0,0,0)" fill="#bc002d" ></path></g></g><path d="m 95.3,55 h 9.7 v 6.8 h 7 v 9.4 h -7 V 78 h -9.7 v -6.8 h -6.8 v -9.4 h 6.8 z" stroke-width="3" stroke="none" fill="black" ></path><text x="100" y="103" text-anchor="middle" font-size="35" font-family="Arial" font-weight="bold" dominant-baseline="middle" stroke-width="4" stroke="none" fill="black" >KIA</text></svg>