<svg xmlns="http://www.w3.org/2000/svg" version="1.2" baseProfile="tiny" width="516" height="296" viewBox="21 46 258 148"><path d="M25,50 l150,0 0,100 -150,0 z" stroke-width="4" stroke="black" fill="rgb(128,224,255)" fill-opacity="1" ></path><g transform="translate(195,140)" ><g transform="scale(0.09)" ><path d="M0 0h640v480H0Z" stroke-width="4" stroke="rgba(0,0,0,0)" fill="#e30a17" ></path><path d="M285 127.6c-67.4 0-122 53.5-122 119.8s54.6 120 122 120c43.47 0 81.6-22.36 103.2-55.98a97.94 97.94 0 0 1-72.7 31.98c-53.9 0-97.6-43-97.6-96s43.7-95.8 97.6-95.8a98.12 98.12 0 0 1 72.54 31.74A122.38 122.38 0 0 0 285 127.6m145.7 63.8v.1l-1 44.3-41.3 11.2 40.8 14.5-1 40.7 26.5-31.8 40.2 14-23.2-34.1 28.3-33.9-43.5 12z" stroke-width="4" stroke="rgba(0,0,0,0)" fill="#fff" ></path></g></g><path d="M 60,118 V 83 h 80 v 35  M 100,83 V 110" stroke-width="3" stroke="black" fill="none" ></path></svg>