<svg xmlns="http://www.w3.org/2000/svg" version="1.2" baseProfile="tiny" width="516" height="296" viewBox="21 46 258 148"><path d="M25,50 l150,0 0,100 -150,0 z" stroke-width="4" stroke="black" fill="rgb(128,224,255)" fill-opacity="1" ></path><g transform="translate(195,140)" ><g transform="scale(0.09)" ><path d="M0 0h640v480H0z" stroke-width="4" stroke="rgba(0,0,0,0)" fill="#012169" ></path><path d="m75 0 244 181L562 0h78v62L400 241l240 178v61h-80L320 301 81 480H0v-60l239-178L0 64V0z" stroke-width="4" stroke="rgba(0,0,0,0)" fill="#FFF" ></path><path d="m424 281 216 159v40L369 281zm-184 20 6 35L54 480H0zM640 0v3L391 191l2-44L590 0zM0 0l239 176h-60L0 42z" stroke-width="4" stroke="rgba(0,0,0,0)" fill="#C8102E" ></path><path d="M241 0v480h160V0zM0 160v160h640V160z" stroke-width="4" stroke="rgba(0,0,0,0)" fill="#FFF" ></path><path d="M0 193v96h640v-96zM273 0v480h96V0z" stroke-width="4" stroke="rgba(0,0,0,0)" fill="#C8102E" ></path></g></g><circle cx="100" cy="115" r="5" stroke-width="3" stroke="black" fill="none" ></circle><path d="M100,111 l0,-30 M90,90 l10,-10 10,10" stroke-width="3" stroke="black" fill="none" ></path></svg>