<?xml version="1.0" encoding="iso-8859-1"?>
<!DOCTYPE svg PUBLIC "-//W3C//DTD SVG 20000303 Stylable//EN"
"http://www.w3.org/TR/2000/03/WD-SVG-20000303/DTD/svg-20000303-stylable.dtd">

<svg width="6.0820in" height="6.0820in" viewBox="0 0 999 999">

<path style="fill:#92cce3" d="M499,2 l-25,1 -26,2 -24,3 -25,5 -24,5 -23,7 -23,8 -23,9 -22,10 -21,11 -21,12 -20,12 -20,14 -19,15 -18,16 -17,16 -16,17 -16,19 -15,18 -14,20 -12,20 -12,21 -11,21 -10,22 -9,23 -8,23 -7,23 -5,24 -5,25 -3,24 -2,26 -1,25 1,25 2,26 3,24 5,25 5,24 7,23 8,23 9,23 10,22 11,21 12,21 12,20 14,20 15,19 16,18 16,17 17,16 18,16 19,15 20,14 20,12 21,12 21,11 22,10 23,9 23,8 23,7 24,5 25,5 24,3 26,2 25,1 25,-1 26,-2 24,-3 25,-5 24,-5 23,-7 23,-8 23,-9 22,-10 21,-11 21,-12 20,-12 20,-14 18,-15 19,-16 17,-16 16,-17 16,-18 15,-19 14,-20 12,-20 12,-21 11,-21 10,-22 9,-23 8,-23 7,-23 5,-24 5,-25 3,-24 2,-26 1,-25 -1,-25 -2,-26 -3,-24 -5,-25 -5,-24 -7,-23 -8,-23 -9,-23 -10,-22 -11,-21 -12,-21 -12,-20 -14,-20 -15,-18 -16,-19 -16,-17 -17,-16 -19,-16 -18,-15 -20,-14 -20,-12 -21,-12 -21,-11 -22,-10 -23,-9 -23,-8 -23,-7 -24,-5 -25,-5 -24,-3 -26,-2 -25,-1z" />
<path style="fill:#131516" d="M5,499 l0,0 0,-6 1,-7 0,-6 0,-6 0,-7 1,-6 0,-6 1,-6 1,-7 0,-6 1,-6 1,-6 1,-6 1,-6 1,-6 1,-6 2,-6 1,-6 2,-6 1,-6 2,-6 1,-6 2,-6 2,-5 2,-6 1,-6 2,-6 2,-5 3,-6 2,-6 2,-5 2,-6 3,-5 2,-6 3,-5 2,-6 3,-5 3,-5 2,-6 3,-5 3,-5 3,-5 3,-5 3,-6 3,-5 3,-5 4,-5 3,-5 3,-5 4,-4 3,-5 4,-5 3,-5 4,-4 4,-5 3,-5 4,-4 4,-5 4,-4 4,-5 4,-4 4,-4 4,-5 4,-4 4,-4 5,-4 4,-4 4,-4 5,-4 4,-4 5,-4 4,-4 5,-3 5,-4 4,-4 5,-3 5,-4 5,-3 4,-4 5,-3 5,-3 5,-4 5,-3 5,-3 6,-3 5,-3 5,-3 5,-3 5,-3 6,-2 5,-3 5,-3 6,-2 5,-3 6,-2 5,-3 6,-2 5,-2 6,-2 6,-3 5,-2 6,-2 6,-1 6,-2 5,-2 6,-2 6,-1 6,-2 6,-1 6,-2 6,-1 6,-2 6,-1 6,-1 6,-1 6,-1 6,-1 6,-1 6,0 7,-1 6,-1 6,0 6,-1 7,0 6,0 6,0 7,-1 6,0 0,-5 -6,0 -7,0 -6,0 -7,0 -6,0 -6,1 -7,0 -6,1 -6,1 -6,1 -7,0 -6,1 -6,1 -6,1 -6,1 -6,2 -7,1 -6,1 -6,2 -6,1 -6,2 -5,1 -6,2 -6,2 -6,2 -6,2 -6,2 -5,2 -6,2 -6,2 -5,3 -6,2 -6,2 -5,3 -6,2 -5,3 -6,3 -5,2 -5,3 -6,3 -5,3 -5,3 -5,3 -6,3 -5,3 -5,3 -5,4 -5,3 -5,3 -5,4 -5,3 -5,4 -4,4 -5,3 -5,4 -4,4 -5,4 -5,4 -4,3 -5,5 -4,4 -4,4 -5,4 -4,4 -4,4 -4,5 -4,4 -4,4 -5,5 -3,4 -4,5 -4,5 -4,4 -4,5 -3,5 -4,4 -4,5 -3,5 -4,5 -3,5 -3,5 -4,5 -3,5 -3,5 -3,6 -3,5 -3,5 -3,5 -3,6 -3,5 -2,5 -3,6 -3,5 -2,6 -3,5 -2,6 -2,6 -3,5 -2,6 -2,6 -2,5 -2,6 -2,6 -2,6 -2,6 -2,6 -1,5 -2,6 -1,6 -2,6 -1,6 -1,7 -2,6 -1,6 -1,6 -1,6 -1,6 0,7 -1,6 -1,6 -1,6 0,7 -1,6 0,6 0,7 0,6 0,7 0,6 0,0z" />
<path style="fill:#131516" d="M499,993 l0,0 -6,0 -7,-1 -6,0 -6,0 -7,0 -6,-1 -6,0 -6,-1 -7,-1 -6,0 -6,-1 -6,-1 -6,-1 -6,-1 -6,-1 -6,-1 -6,-2 -6,-1 -6,-2 -6,-1 -6,-2 -6,-1 -6,-2 -5,-2 -6,-2 -6,-1 -6,-2 -5,-2 -6,-3 -6,-2 -5,-2 -6,-2 -5,-3 -6,-2 -5,-3 -6,-2 -5,-3 -5,-3 -6,-2 -5,-3 -5,-3 -5,-3 -5,-3 -6,-3 -5,-3 -5,-3 -5,-4 -5,-3 -5,-3 -4,-4 -5,-3 -5,-4 -5,-3 -4,-4 -5,-4 -5,-3 -4,-4 -5,-4 -4,-4 -5,-4 -4,-4 -4,-4 -5,-4 -4,-4 -4,-4 -4,-5 -4,-4 -4,-4 -4,-5 -4,-4 -4,-5 -4,-4 -3,-5 -4,-5 -4,-4 -3,-5 -4,-5 -3,-5 -4,-4 -3,-5 -3,-5 -4,-5 -3,-5 -3,-5 -3,-6 -3,-5 -3,-5 -3,-5 -3,-5 -2,-6 -3,-5 -3,-5 -2,-6 -3,-5 -2,-6 -3,-5 -2,-6 -2,-5 -2,-6 -3,-6 -2,-5 -2,-6 -1,-6 -2,-6 -2,-5 -2,-6 -1,-6 -2,-6 -1,-6 -2,-6 -1,-6 -2,-6 -1,-6 -1,-6 -1,-6 -1,-6 -1,-6 -1,-6 0,-6 -1,-7 -1,-6 0,-6 -1,-6 0,-7 0,-6 0,-6 -1,-7 0,-6 -5,0 0,6 0,7 0,6 0,7 0,6 1,6 0,7 1,6 1,6 1,6 0,7 1,6 1,6 1,6 1,6 2,6 1,7 1,6 2,6 1,6 2,6 1,5 2,6 2,6 2,6 2,6 2,6 2,5 2,6 2,6 3,5 2,6 2,6 3,5 2,6 3,5 3,6 2,5 3,5 3,6 3,5 3,5 3,5 3,6 3,5 3,5 4,5 3,5 3,5 4,5 3,5 4,5 4,4 3,5 4,5 4,4 4,5 4,5 3,4 5,5 4,4 4,4 4,5 4,4 4,4 5,4 4,4 4,4 5,5 4,3 5,4 5,4 4,4 5,4 5,3 4,4 5,4 5,3 5,4 5,3 5,3 5,4 5,3 5,3 6,3 5,3 5,3 5,3 6,3 5,3 5,2 6,3 5,3 6,2 5,3 6,2 6,2 5,3 6,2 6,2 5,2 6,2 6,2 6,2 6,2 6,2 5,1 6,2 6,1 6,2 6,1 7,1 6,2 6,1 6,1 6,1 6,1 7,0 6,1 6,1 6,1 7,0 6,1 6,0 7,0 6,0 7,0 6,1 0,0z" />
<path style="fill:#131516" d="M993,499 l0,0 0,6 -1,7 0,6 0,6 0,7 -1,6 0,6 -1,6 -1,7 0,6 -1,6 -1,6 -1,6 -1,6 -1,6 -1,6 -2,6 -1,6 -2,6 -1,6 -2,6 -1,6 -2,6 -2,5 -2,6 -1,6 -2,6 -2,5 -3,6 -2,6 -2,5 -2,6 -3,5 -2,6 -3,5 -2,6 -3,5 -3,5 -2,6 -3,5 -3,5 -3,5 -3,5 -3,6 -3,5 -3,5 -4,5 -3,5 -3,5 -4,4 -3,5 -4,5 -3,5 -4,4 -4,5 -3,5 -4,4 -4,5 -4,4 -4,5 -4,4 -4,4 -4,5 -4,4 -4,4 -5,4 -4,4 -4,4 -5,4 -4,4 -5,4 -4,4 -5,3 -5,4 -4,4 -5,3 -5,4 -5,3 -4,4 -5,3 -5,3 -5,4 -5,3 -5,3 -6,3 -5,3 -5,3 -5,3 -5,3 -6,2 -5,3 -5,3 -6,2 -5,3 -6,2 -5,3 -6,2 -5,2 -6,2 -6,3 -5,2 -6,2 -6,1 -6,2 -5,2 -6,2 -6,1 -6,2 -6,1 -6,2 -6,1 -6,2 -6,1 -6,1 -6,1 -6,1 -6,1 -6,1 -6,0 -7,1 -6,1 -6,0 -6,1 -7,0 -6,0 -6,0 -7,1 -6,0 0,6 6,-1 7,0 6,0 7,0 6,0 6,-1 7,0 6,-1 6,-1 6,-1 7,0 6,-1 6,-1 6,-1 6,-1 6,-2 7,-1 6,-1 6,-2 6,-1 6,-2 5,-1 6,-2 6,-2 6,-2 6,-2 6,-2 5,-2 6,-2 6,-2 5,-3 6,-2 6,-2 5,-3 6,-2 5,-3 6,-3 5,-2 5,-3 6,-3 5,-3 5,-3 5,-3 6,-3 5,-3 5,-3 5,-4 5,-3 5,-3 5,-4 5,-3 5,-4 4,-4 5,-3 5,-4 4,-4 5,-4 5,-4 4,-3 5,-5 4,-4 4,-4 5,-4 4,-4 4,-4 4,-5 4,-4 4,-4 5,-5 3,-4 4,-5 4,-5 4,-4 4,-5 3,-5 4,-4 4,-5 3,-5 4,-5 3,-5 3,-5 4,-5 3,-5 3,-5 3,-6 3,-5 3,-5 3,-5 3,-6 3,-5 2,-5 3,-6 3,-5 2,-6 3,-5 2,-6 2,-6 3,-5 2,-6 2,-6 2,-5 2,-6 2,-6 2,-6 2,-6 2,-6 1,-5 2,-6 1,-6 2,-6 1,-6 1,-7 2,-6 1,-6 1,-6 1,-6 1,-6 0,-7 1,-6 1,-6 1,-6 0,-7 1,-6 0,-6 0,-7 0,-6 0,-7 1,-6 0,0z" />
<path style="fill:#131516" d="M499,5 l0,0 6,0 7,1 6,0 6,0 7,0 6,1 6,0 6,1 7,1 6,0 6,1 6,1 6,1 6,1 6,1 6,1 6,2 6,1 6,2 6,1 6,2 6,1 6,2 5,2 6,2 6,1 6,2 5,2 6,3 6,2 5,2 6,2 5,3 6,2 5,3 6,2 5,3 5,3 6,2 5,3 5,3 5,3 5,3 6,3 5,3 5,3 5,4 5,3 5,3 4,4 5,3 5,4 5,3 4,4 5,4 5,3 4,4 5,4 4,4 5,4 4,4 4,4 5,4 4,4 4,4 4,5 4,4 4,4 4,5 4,4 4,5 4,4 3,5 4,5 4,4 3,5 4,5 3,5 4,4 3,5 3,5 4,5 3,5 3,5 3,6 3,5 3,5 3,5 3,5 2,6 3,5 3,5 2,6 3,5 2,6 3,5 2,6 2,5 2,6 3,6 2,5 2,6 1,6 2,6 2,5 2,6 1,6 2,6 1,6 2,6 1,6 2,6 1,6 1,6 1,6 1,6 1,6 1,6 0,6 1,7 1,6 0,6 1,6 0,7 0,6 0,6 1,7 0,6 6,0 -1,-6 0,-7 0,-6 0,-7 0,-6 -1,-6 0,-7 -1,-6 -1,-6 -1,-6 0,-7 -1,-6 -1,-6 -1,-6 -1,-6 -2,-6 -1,-7 -1,-6 -2,-6 -1,-6 -2,-6 -1,-5 -2,-6 -2,-6 -2,-6 -2,-6 -2,-6 -2,-5 -2,-6 -2,-6 -3,-5 -2,-6 -2,-6 -3,-5 -2,-6 -3,-5 -3,-6 -2,-5 -3,-5 -3,-6 -3,-5 -3,-5 -3,-5 -3,-6 -3,-5 -3,-5 -4,-5 -3,-5 -3,-5 -4,-5 -3,-5 -4,-5 -4,-4 -3,-5 -4,-5 -4,-4 -4,-5 -4,-5 -3,-4 -5,-5 -4,-4 -4,-4 -4,-5 -4,-4 -4,-4 -5,-4 -4,-4 -4,-4 -5,-5 -4,-3 -5,-4 -5,-4 -4,-4 -5,-4 -5,-3 -4,-4 -5,-4 -5,-3 -5,-4 -5,-3 -5,-3 -5,-4 -5,-3 -5,-3 -6,-3 -5,-3 -5,-3 -5,-3 -6,-3 -5,-3 -5,-2 -6,-3 -5,-3 -6,-2 -5,-3 -6,-2 -6,-2 -5,-3 -6,-2 -6,-2 -5,-2 -6,-2 -6,-2 -6,-2 -6,-2 -6,-2 -5,-1 -6,-2 -6,-1 -6,-2 -6,-1 -7,-1 -6,-2 -6,-1 -6,-1 -6,-1 -6,-1 -7,0 -6,-1 -6,-1 -6,-1 -7,0 -6,-1 -6,0 -7,0 -6,0 -7,0 -6,0 0,0z" />
<path style="fill:#131516" d="M499,5 l0,-3 0,0 0,0 0,0 0,0 0,0 0,-2z" />

</svg>
