<svg xmlns="http://www.w3.org/2000/svg" version="1.2" baseProfile="tiny" width="456" height="336" viewBox="36 36 228 168"><circle cx="100" cy="100" r="60" stroke-width="4" stroke="black" fill="rgb(128,224,255)" fill-opacity="1" ></circle><g transform="translate(180,140)" ><g transform="scale(0.09)" ><path d="M0 0v53.3h640V0zm0 106.7V160h640v-53.3zm0 106.6v53.4h640v-53.4zM0 320v53.3h640V320zm0 106.7V480h640v-53.3z" stroke-width="4" stroke="rgba(0,0,0,0)" fill="#0d5eaf" ></path><path d="M0 53.3v53.4h640V53.3zM0 160v53.3h640V160zm0 106.7V320h640v-53.3zm0 106.6v53.4h640v-53.4z" stroke-width="4" stroke="rgba(0,0,0,0)" fill="#fff" ></path><path d="M0 0h266.7v266.7H0z" stroke-width="4" stroke="rgba(0,0,0,0)" fill="#0d5eaf" ></path><path d="M106.7 0v106.7H0V160h106.7v106.7H160V160h106.7v-53.3H160V0z" stroke-width="4" stroke="rgba(0,0,0,0)" fill="#fff" ></path></g></g><path d="m 80,65 20,13 20,-13 0,-5 -20,10 -20,-10 z" stroke-width="3" stroke="none" fill="black" ></path></svg>