<?xml version="1.0" encoding="iso-8859-1"?>
<!DOCTYPE svg PUBLIC "-//W3C//DTD SVG 20000303 Stylable//EN"
"http://www.w3.org/TR/2000/03/WD-SVG-20000303/DTD/svg-20000303-stylable.dtd">

<svg width="7.5940in" height="6.5830in" viewBox="0 0 999 866">

<path style="fill:#f5f184" d="M265,864 l468,0 22,-1 21,-3 20,-5 20,-6 20,-8 18,-9 18,-11 16,-12 16,-14 15,-14 14,-16 12,-17 12,-18 10,-19 8,-20 8,-21 6,-21 4,-23 2,-22 1,-23 -1,-23 -2,-23 -4,-22 -6,-21 -8,-21 -8,-20 -10,-19 -12,-18 -12,-17 -14,-16 -15,-15 -16,-13 -17,-13 -17,-11 -19,-9 -19,-8 -20,-6 -21,-4 -21,-3 -21,-1 -1,-24 -3,-24 -3,-23 -6,-23 -6,-21 -8,-21 -9,-20 -10,-19 -11,-18 -13,-16 -13,-16 -14,-14 -15,-13 -16,-11 -16,-10 -17,-8 -18,-7 -18,-4 -19,-3 -19,-1 -19,1 -19,3 -18,4 -18,7 -17,8 -17,10 -16,11 -14,13 -15,14 -13,16 -12,16 -11,18 -10,19 -9,20 -8,21 -6,21 -5,23 -4,23 -2,24 -1,24 -21,1 -21,3 -21,4 -20,6 -19,8 -18,9 -18,11 -17,13 -15,13 -15,15 -14,16 -12,17 -12,18 -10,19 -8,20 -8,21 -6,21 -4,22 -2,23 -1,23 1,23 2,22 4,23 6,21 8,21 8,20 10,19 12,18 12,17 14,16 15,14 16,14 16,12 18,11 18,9 20,8 20,6 20,5 21,3 22,1z" />
<path style="fill:#131516" d="M755,865 l0,-5 -22,1 0,5 22,-1 0,0 0,0 0,0 1,0 0,0 1,-1 0,0 0,-1 0,0 0,0 0,-1 0,0 0,-1 0,0 -1,0 0,-1 -1,0 0,0z" />
<path style="fill:#131516" d="M776,862 l0,-4 -21,2 0,5 21,-3 0,0 0,0 1,0 0,0 1,0 0,-1 0,0 0,0 0,-1 0,0 0,-1 0,0 0,-1 -1,0 0,0 0,0 -1,0 0,0z" />
<path style="fill:#131516" d="M797,858 l-1,-5 -21,5 1,4 21,-4 0,0 0,0 0,0 1,-1 0,0 1,0 0,-1 0,0 0,-1 0,0 0,-1 -1,0 0,0 0,-1 -1,0 0,0 -1,0 0,0z" />
<path style="fill:#131516" d="M817,851 l-2,-4 -19,6 1,5 20,-7 0,0 0,0 0,0 1,0 0,0 0,-1 1,0 0,-1 0,0 -1,-1 0,0 0,0 0,-1 -1,0 0,0 0,0 -1,0 -1,0z" />
<path style="fill:#131516" d="M837,843 l-2,-4 -20,8 2,4 19,-7 1,-1 -1,1 1,-1 0,0 1,0 0,-1 0,0 0,-1 0,0 0,-1 0,0 -1,0 0,-1 0,0 -1,0 0,0 -1,0 0,0z" />
<path style="fill:#131516" d="M855,834 l-2,-4 -19,9 3,4 18,-9 0,0 0,0 1,0 0,-1 0,0 0,0 0,-1 0,0 0,-1 0,0 0,-1 0,0 -1,0 0,0 -1,0 0,-1 -1,1 0,0z" />
<path style="fill:#131516" d="M873,823 l-3,-4 -17,11 2,4 18,-11 0,0 0,0 0,0 1,-1 0,0 0,0 0,-1 0,0 0,-1 0,0 -1,0 0,-1 0,0 -1,0 0,0 -1,0 0,0 -1,0z" />
<path style="fill:#131516" d="M890,811 l-3,-4 -17,12 3,4 17,-12 0,0 0,0 0,-1 1,0 0,0 0,-1 0,0 0,-1 0,0 -1,0 0,-1 0,0 -1,0 0,0 -1,0 0,0 -1,0 0,0z" />
<path style="fill:#131516" d="M906,797 l-3,-3 -16,13 3,4 16,-14 0,0 0,0 0,0 0,-1 1,0 0,-1 0,0 -1,0 0,-1 0,0 0,0 -1,-1 0,0 -1,0 0,0 0,0 -1,0 0,1z" />
<path style="fill:#131516" d="M921,782 l-4,-3 -14,15 3,3 15,-15 0,0 0,0 0,0 0,-1 0,0 0,-1 0,0 0,0 0,-1 0,0 -1,0 0,-1 0,0 -1,0 0,0 -1,0 0,1 -1,0z" />
<path style="fill:#131516" d="M935,766 l-4,-3 -14,16 4,3 14,-16 0,0 0,0 0,0 0,-1 0,0 0,-1 0,0 0,0 0,-1 -1,0 0,0 0,-1 -1,0 0,0 -1,0 0,0 -1,1 0,0z" />
<path style="fill:#131516" d="M947,749 l-4,-3 -12,17 4,3 12,-17 0,0 0,0 1,0 0,-1 0,0 0,-1 0,0 -1,-1 0,0 0,0 -1,-1 0,0 0,0 -1,0 0,0 -1,1 0,0 -1,0z" />
<path style="fill:#131516" d="M959,731 l-4,-3 -12,18 4,3 12,-18 0,0 0,0 0,-1 0,0 0,-1 0,0 0,-1 0,0 -1,0 0,0 0,-1 -1,0 0,0 -1,0 0,0 -1,0 0,1 0,0z" />
<path style="fill:#131516" d="M969,711 l-4,-2 -10,19 4,3 10,-19 0,-1 0,1 0,-1 0,0 0,-1 0,0 0,-1 0,0 -1,0 0,-1 -1,0 0,0 0,0 -1,0 0,0 -1,1 0,0 0,0z" />
<path style="fill:#131516" d="M978,691 l-5,-1 -8,20 4,1 9,-19 0,-1 0,1 0,-1 0,0 0,-1 0,0 -1,-1 0,0 0,0 -1,-1 0,0 0,0 -1,0 0,0 -1,1 0,0 0,0 -1,1z" />
<path style="fill:#131516" d="M985,671 l-5,-2 -7,21 5,1 7,-20 0,0 0,0 0,-1 0,0 0,-1 0,0 0,-1 -1,0 0,0 0,0 -1,0 0,0 -1,0 0,0 -1,0 0,0 0,1 -1,0z" />
<path style="fill:#131516" d="M991,649 l-5,-1 -6,21 5,2 6,-22 0,0 0,0 0,0 0,-1 0,0 0,-1 -1,0 0,0 0,-1 -1,0 0,0 -1,0 0,0 -1,0 0,1 0,0 -1,0 0,1z" />
<path style="fill:#131516" d="M995,627 l-5,-1 -4,22 5,1 4,-22 0,0 0,0 0,-1 0,0 0,-1 0,0 -1,0 0,-1 0,0 -1,0 0,0 -1,0 0,0 -1,0 0,1 0,0 0,0 -1,1z" />
<path style="fill:#131516" d="M998,604 l-5,0 -3,22 5,1 3,-23 0,0 0,0 0,0 0,-1 -1,0 0,-1 0,0 -1,0 0,0 0,0 -1,0 0,0 -1,0 0,0 0,0 -1,1 0,0 0,1z" />
<path style="fill:#131516" d="M994,581 l-1,23 5,0 1,-23z" />
<path style="fill:#131516" d="M998,557 l-5,1 1,23 5,0 -1,-23 0,-1 0,1 0,-1 -1,-1 0,0 0,0 -1,0 0,-1 0,0 -1,0 0,0 -1,0 0,1 0,0 -1,0 0,1 0,0 0,1z" />
<path style="fill:#131516" d="M995,535 l-5,0 3,23 5,-1 -3,-22 0,0 0,0 0,-1 0,0 0,-1 -1,0 0,0 -1,0 0,0 -1,0 0,0 0,0 -1,0 0,0 0,1 -1,0 0,1 0,0z" />
<path style="fill:#131516" d="M991,512 l-5,1 4,22 5,0 -4,-23 0,0 0,0 0,0 -1,-1 0,0 0,0 -1,0 0,0 0,0 -1,0 0,0 -1,0 0,0 0,0 -1,1 0,0 0,1 0,0z" />
<path style="fill:#131516" d="M985,491 l-5,1 6,21 5,-1 -6,-21 0,0 0,0 0,-1 0,0 -1,0 0,-1 -1,0 0,0 0,0 -1,0 0,0 -1,1 0,0 0,0 -1,1 0,0 0,1 0,0z" />
<path style="fill:#131516" d="M978,470 l-5,2 7,20 5,-1 -7,-21 0,0 0,0 -1,-1 0,0 0,0 -1,0 0,-1 0,0 -1,0 0,1 -1,0 0,0 0,0 -1,1 0,0 0,1 0,0 0,1z" />
<path style="fill:#131516" d="M969,450 l-4,2 8,20 5,-2 -9,-20 0,0 0,0 0,-1 -1,0 0,0 -1,0 0,-1 0,0 -1,1 0,0 -1,0 0,0 0,1 -1,0 0,0 0,1 0,0 1,1z" />
<path style="fill:#131516" d="M959,431 l-4,2 10,19 4,-2 -10,-19 0,0 0,0 -1,-1 0,0 0,0 -1,0 0,0 -1,0 0,0 0,0 -1,0 0,0 0,1 -1,0 0,1 0,0 0,1 1,0z" />
<path style="fill:#131516" d="M947,412 l-4,3 12,18 4,-2 -12,-18 0,-1 0,1 0,-1 0,0 -1,0 0,-1 -1,0 0,0 -1,1 0,0 0,0 -1,0 0,1 0,0 0,1 0,0 0,1 0,0z" />
<path style="fill:#131516" d="M935,395 l-4,3 12,17 4,-3 -12,-17 0,0 0,0 -1,0 0,0 -1,-1 0,0 0,0 -1,0 0,1 -1,0 0,0 0,1 -1,0 0,0 0,1 0,0 1,1 0,0z" />
<path style="fill:#131516" d="M921,379 l-4,3 14,16 4,-3 -14,-16 0,0 0,0 -1,0 0,0 -1,-1 0,0 0,0 -1,1 0,0 -1,0 0,0 0,1 0,0 0,1 0,0 0,0 0,1 0,0z" />
<path style="fill:#131516" d="M906,364 l-4,4 15,15 4,-4 -15,-15 0,0 0,0 -1,0 0,0 -1,0 0,0 0,0 -1,0 0,0 -1,0 0,1 0,0 0,1 0,0 0,0 0,1 0,0 0,1z" />
<path style="fill:#131516" d="M890,351 l-3,3 16,14 3,-4 -16,-13 0,0 0,0 -1,-1 0,0 -1,0 0,0 0,0 -1,0 0,1 -1,0 0,0 0,1 0,0 0,1 0,0 0,1 0,0 1,0z" />
<path style="fill:#131516" d="M873,338 l-3,4 17,12 3,-3 -17,-13 0,0 0,0 -1,0 0,0 -1,0 0,0 0,0 -1,0 0,1 0,0 -1,0 0,1 0,0 0,1 0,0 0,0 1,1 0,0z" />
<path style="fill:#131516" d="M855,327 l-2,4 17,11 3,-4 -18,-11 0,0 0,0 0,0 -1,0 0,0 -1,0 0,0 -1,1 0,0 0,0 0,1 -1,0 0,0 0,1 1,0 0,1 0,0 1,0z" />
<path style="fill:#131516" d="M836,318 l-2,4 19,10 2,-5 -19,-9 0,0 0,0 0,0 -1,0 0,0 -1,0 0,0 0,0 -1,1 0,0 0,0 0,1 0,0 0,1 0,0 0,1 1,0 0,0z" />
<path style="fill:#131516" d="M817,310 l-2,4 19,8 2,-4 -19,-8 0,0 0,0 -1,0 0,0 -1,0 0,0 -1,0 0,1 0,0 0,0 0,1 -1,0 1,1 0,0 0,1 0,0 1,0 0,0z" />
<path style="fill:#131516" d="M797,304 l-2,4 20,7 2,-5 -20,-6 0,0 0,0 -1,0 0,0 -1,0 0,0 -1,0 0,1 0,0 0,0 0,1 0,0 0,1 0,0 0,0 0,1 1,0 0,0z" />
<path style="fill:#131516" d="M776,299 l-1,5 21,4 1,-4 -21,-5 0,0 0,0 -1,0 0,0 -1,0 0,1 0,0 -1,0 0,1 0,0 0,0 0,1 0,0 0,1 1,0 0,0 0,1 1,0z" />
<path style="fill:#131516" d="M754,296 l0,5 21,3 1,-5 -21,-3 -1,0 1,0 -1,0 0,0 -1,1 0,0 -1,0 0,1 0,0 0,0 0,1 0,0 0,1 0,0 1,1 0,0 0,0 1,0z" />
<path style="fill:#131516" d="M733,300 l21,1 0,-5 -21,-1z" />
<path style="fill:#131516" d="M734,273 l-5,1 1,24 5,0 -1,-24 0,-1 0,1 0,-1 0,-1 0,0 -1,0 0,0 0,-1 -1,0 0,0 -1,0 0,0 0,1 -1,0 0,0 0,1 0,0 -1,1z" />
<path style="fill:#131516" d="M732,249 l-5,1 2,24 5,-1 -2,-23 0,-1 0,1 0,-1 0,0 -1,-1 0,0 0,0 -1,0 0,0 -1,0 0,0 -1,0 0,0 0,0 -1,1 0,0 0,1 0,0z" />
<path style="fill:#131516" d="M728,226 l-5,1 4,23 5,-1 -4,-22 0,-1 0,1 0,-1 0,0 -1,-1 0,0 0,0 -1,0 0,0 -1,0 0,0 -1,0 0,0 0,0 0,1 -1,0 0,1 0,0z" />
<path style="fill:#131516" d="M723,204 l-5,1 5,22 5,-1 -5,-22 0,0 0,0 0,-1 -1,0 0,0 0,-1 -1,0 0,0 -1,0 0,0 -1,0 0,0 0,1 -1,0 0,0 0,1 0,0 0,1z" />
<path style="fill:#131516" d="M716,182 l-4,1 6,22 5,-1 -7,-22 0,0 0,0 0,0 0,-1 -1,0 0,0 0,-1 -1,0 0,0 -1,1 0,0 -1,0 0,0 0,1 0,0 0,0 0,1 0,0z" />
<path style="fill:#131516" d="M708,161 l-4,2 8,21 4,-2 -8,-21 0,0 0,0 0,0 0,-1 -1,0 0,0 0,0 -1,0 0,0 -1,0 0,0 -1,0 0,1 0,0 0,0 0,1 0,0 0,1z" />
<path style="fill:#131516" d="M699,141 l-4,2 9,20 4,-2 -9,-20 0,0 0,0 0,0 0,-1 -1,0 0,0 -1,0 0,0 -1,0 0,0 0,0 -1,0 0,1 0,0 0,1 0,0 0,1 0,0z" />
<path style="fill:#131516" d="M689,122 l-4,2 10,19 4,-2 -10,-19 0,0 0,0 0,0 -1,-1 0,0 -1,0 0,0 0,0 -1,0 0,0 -1,0 0,1 0,0 0,0 0,1 -1,0 1,1 0,0z" />
<path style="fill:#131516" d="M678,104 l-4,3 11,17 4,-2 -11,-18 0,0 0,0 -1,0 0,-1 0,0 -1,0 0,0 -1,0 0,0 -1,0 0,1 0,0 0,0 -1,1 0,0 0,1 0,0 1,1z" />
<path style="fill:#131516" d="M665,87 l-4,3 13,17 4,-3 -13,-17 0,0 0,0 0,0 0,0 -1,-1 0,0 -1,0 0,0 -1,1 0,0 0,0 -1,0 0,1 0,0 0,1 0,0 0,1 0,0z" />
<path style="fill:#131516" d="M652,72 l-4,3 14,15 3,-3 -13,-15 0,0 0,0 0,-1 -1,0 0,0 -1,0 0,0 -1,0 0,0 0,0 -1,1 0,0 0,1 0,0 0,0 0,1 0,0 0,1z" />
<path style="fill:#131516" d="M638,57 l-4,4 14,14 4,-3 -14,-15 0,0 0,0 -1,0 0,0 -1,0 0,0 -1,0 0,0 0,0 -1,0 0,1 0,0 0,1 0,0 0,1 0,0 0,0 0,1z" />
<path style="fill:#131516" d="M622,44 l-2,4 14,13 4,-4 -15,-12 -1,-1 1,1 -1,-1 0,0 -1,0 0,0 -1,0 0,0 0,1 -1,0 0,0 0,1 0,0 0,0 0,1 0,0 0,1 1,0z" />
<path style="fill:#131516" d="M606,33 l-2,4 16,11 2,-4 -15,-11 -1,0 1,0 -1,0 0,0 -1,0 0,0 -1,0 0,0 0,0 -1,1 0,0 0,0 0,1 0,0 0,1 0,0 0,1 1,0z" />
<path style="fill:#131516" d="M590,23 l-2,4 16,10 2,-4 -16,-10 0,0 0,0 0,0 -1,0 0,0 -1,0 0,0 -1,0 0,1 0,0 0,0 -1,1 0,0 0,1 1,0 0,1 0,0 1,0z" />
<path style="fill:#131516" d="M572,15 l-1,4 17,8 2,-4 -17,-8 -1,0 1,0 -1,0 0,0 -1,0 0,0 -1,0 0,0 0,1 -1,0 0,0 0,1 0,0 0,1 0,0 1,1 0,0 1,0z" />
<path style="fill:#131516" d="M555,8 l-2,5 18,6 1,-4 -17,-7 0,0 0,0 -1,0 0,0 -1,0 0,0 -1,1 0,0 0,0 0,1 0,0 0,1 0,0 0,0 0,1 0,0 1,0 0,1z" />
<path style="fill:#131516" d="M536,3 l-1,5 18,5 2,-5 -19,-5 0,0 0,0 0,0 -1,0 0,0 -1,1 0,0 0,0 -1,1 0,0 0,1 0,0 0,0 0,1 1,0 0,1 0,0 1,0z" />
<path style="fill:#131516" d="M517,1 l0,4 18,3 1,-5 -19,-2 0,0 0,0 0,-1 -1,1 0,0 -1,0 0,0 0,1 0,0 0,1 -1,0 1,0 0,1 0,0 0,1 1,0 0,0 1,0z" />
<path style="fill:#131516" d="M498,4 l19,1 0,-4 -19,-1z" />
<path style="fill:#131516" d="M478,1 l1,4 19,-1 0,-4 -20,1 0,0 0,0 0,0 -1,0 0,0 0,0 -1,1 0,0 0,1 0,0 0,0 0,1 1,0 0,1 0,0 1,0 0,0 1,0z" />
<path style="fill:#131516" d="M459,3 l1,5 19,-3 -1,-4 -19,2 0,0 0,0 0,1 -1,0 0,0 0,0 0,1 -1,0 0,1 0,0 1,1 0,0 0,0 0,1 1,0 0,0 1,0 0,0z" />
<path style="fill:#131516" d="M441,8 l1,5 18,-5 -1,-5 -18,5 0,0 0,0 -1,0 0,1 0,0 -1,0 0,1 0,0 0,1 0,0 0,1 1,0 0,0 0,1 1,0 0,0 1,0 0,0z" />
<path style="fill:#131516" d="M423,15 l2,4 17,-6 -1,-5 -18,7 0,0 0,0 -1,0 0,0 0,1 0,0 -1,1 0,0 0,0 1,1 0,0 0,1 0,0 1,0 0,0 1,0 0,0 1,0z" />
<path style="fill:#131516" d="M405,23 l3,4 17,-8 -2,-4 -17,8 -1,0 1,0 -1,0 0,1 -1,0 0,0 0,1 0,0 0,1 0,0 1,1 0,0 0,0 1,0 0,1 1,0 0,0 1,-1z" />
<path style="fill:#131516" d="M389,33 l2,4 17,-10 -3,-4 -16,10 0,0 0,0 0,0 -1,1 0,0 0,1 0,0 0,0 0,1 0,0 0,1 1,0 0,0 1,0 0,0 0,0 1,0 0,0z" />
<path style="fill:#131516" d="M373,45 l3,3 16,-11 -3,-4 -16,11 0,1 0,-1 0,1 -1,0 0,1 0,0 0,1 0,0 0,0 1,1 0,0 0,0 1,1 0,0 0,0 1,0 0,0 1,-1z" />
<path style="fill:#131516" d="M358,57 l3,4 15,-13 -3,-3 -15,12 0,0 0,0 0,1 -1,0 0,1 0,0 0,1 0,0 0,0 1,1 0,0 0,0 1,0 0,1 1,0 0,-1 1,0 0,0z" />
<path style="fill:#131516" d="M344,72 l3,3 14,-14 -3,-4 -14,15 0,0 0,0 -1,0 0,0 0,1 0,0 0,1 0,0 0,1 1,0 0,0 0,0 1,1 0,0 1,0 0,0 1,-1 0,0z" />
<path style="fill:#131516" d="M330,87 l4,3 13,-15 -3,-3 -14,15 0,0 0,0 0,1 0,0 0,1 0,0 0,0 0,1 0,0 1,1 0,0 0,0 1,0 0,0 1,0 0,0 1,0 0,-1z" />
<path style="fill:#131516" d="M318,104 l4,3 12,-17 -4,-3 -12,17 0,0 0,0 0,0 0,1 0,0 0,1 0,0 0,1 0,0 1,0 0,1 0,0 1,0 0,0 1,0 0,0 1,-1 0,0z" />
<path style="fill:#131516" d="M307,122 l4,2 11,-17 -4,-3 -11,18 0,0 0,0 0,0 -1,1 0,0 1,1 0,0 0,1 0,0 1,0 0,0 0,1 1,0 0,0 1,-1 0,0 1,0 0,-1z" />
<path style="fill:#131516" d="M297,141 l4,2 10,-19 -4,-2 -10,19 0,0 0,0 -1,0 0,1 0,0 0,1 1,0 0,1 0,0 1,0 0,0 0,0 1,0 0,0 1,0 0,0 0,0 1,-1z" />
<path style="fill:#131516" d="M288,161 l4,2 9,-20 -4,-2 -9,20 0,0 0,0 -1,1 0,0 0,1 1,0 0,0 0,1 0,0 1,0 0,0 1,0 0,0 1,0 0,0 0,0 1,-1 0,0z" />
<path style="fill:#131516" d="M280,182 l4,2 8,-21 -4,-2 -8,21 0,0 0,0 0,1 0,0 0,1 0,0 0,0 1,1 0,0 0,0 1,0 0,0 1,0 0,0 0,0 1,0 0,-1 0,0z" />
<path style="fill:#131516" d="M273,204 l5,1 6,-22 -4,-1 -7,22 0,0 0,0 0,0 0,1 0,0 1,1 0,0 0,0 1,1 0,0 0,0 1,0 0,0 1,0 0,-1 0,0 1,0 0,-1z" />
<path style="fill:#131516" d="M268,227 l5,0 5,-22 -5,-1 -5,22 0,1 0,-1 0,1 0,0 0,1 1,0 0,1 0,0 1,0 0,0 1,0 0,0 0,0 1,0 0,0 0,-1 1,0 0,-1z" />
<path style="fill:#131516" d="M264,250 l5,0 4,-23 -5,0 -3,22 -1,1 1,-1 -1,1 1,1 0,0 0,0 0,1 1,0 0,0 0,0 1,0 0,0 1,0 0,0 1,0 0,-1 0,0 0,-1z" />
<path style="fill:#131516" d="M262,274 l5,0 2,-24 -5,0 -2,23 0,1 0,-1 0,1 0,0 1,1 0,0 0,1 1,0 0,0 0,0 1,0 0,0 1,0 0,0 0,-1 1,0 0,-1 0,0z" />
<path style="fill:#131516" d="M266,298 l1,-24 -5,0 0,24z" />
<path style="fill:#131516" d="M242,296 l1,5 21,-1 0,-5 -21,1 -1,0 1,0 -1,0 -1,1 0,0 0,0 0,1 -1,0 0,0 0,1 0,0 0,1 1,0 0,0 0,1 1,0 0,0 1,0z" />
<path style="fill:#131516" d="M221,299 l1,5 21,-3 -1,-5 -21,3 0,0 0,0 0,0 -1,1 0,0 0,0 -1,1 0,0 0,0 0,1 0,0 1,1 0,0 0,0 0,1 1,0 0,0 1,0z" />
<path style="fill:#131516" d="M200,304 l2,4 20,-4 -1,-5 -20,5 -1,0 1,0 -1,0 0,0 -1,0 0,1 0,0 0,1 0,0 0,1 0,0 0,0 0,1 1,0 0,0 1,0 0,0 1,0z" />
<path style="fill:#131516" d="M181,310 l1,5 20,-7 -2,-4 -19,6 0,0 0,0 -1,0 0,1 -1,0 0,0 0,1 0,0 0,1 0,0 0,0 1,1 0,0 0,0 1,1 0,0 1,0 0,0z" />
<path style="fill:#131516" d="M161,318 l2,4 19,-8 -1,-4 -20,8 0,0 0,0 0,0 -1,0 0,1 0,0 0,1 0,0 0,1 0,0 0,0 1,1 0,0 0,0 1,0 0,0 1,0 0,0z" />
<path style="fill:#131516" d="M143,327 l2,5 18,-10 -2,-4 -18,9 0,0 0,0 -1,1 0,0 0,0 0,1 -1,0 0,1 1,0 0,1 0,0 0,0 1,0 0,1 0,0 1,0 0,0 1,0z" />
<path style="fill:#131516" d="M125,338 l2,4 18,-11 -2,-4 -18,11 0,0 0,0 -1,1 0,0 0,0 0,1 0,0 0,1 0,0 0,1 0,0 1,0 0,0 0,1 1,0 0,0 1,0 0,-1z" />
<path style="fill:#131516" d="M108,351 l3,3 17,-12 -3,-4 -17,13 0,0 0,0 0,0 -1,0 0,1 0,0 0,1 0,0 0,1 1,0 0,0 0,1 1,0 0,0 0,0 1,0 0,0 1,-1z" />
<path style="fill:#131516" d="M92,364 l3,4 16,-14 -3,-3 -16,13 0,0 0,0 0,1 -1,0 0,1 0,0 0,0 0,1 1,0 0,1 0,0 1,0 0,0 0,1 1,0 0,-1 1,0 0,0z" />
<path style="fill:#131516" d="M77,379 l4,4 14,-15 -3,-4 -15,15 0,0 0,0 0,1 0,0 -1,0 0,1 1,0 0,1 0,0 0,1 1,0 0,0 0,0 1,0 0,0 1,0 0,0 1,0z" />
<path style="fill:#131516" d="M63,395 l4,3 14,-16 -4,-3 -14,16 0,0 0,0 0,1 0,0 0,1 0,0 0,0 0,1 0,0 1,1 0,0 0,0 1,0 0,0 1,0 0,0 1,0 0,-1z" />
<path style="fill:#131516" d="M51,413 l4,2 12,-17 -4,-3 -12,17 0,1 0,-1 -1,1 0,0 0,1 0,0 0,1 1,0 0,0 0,1 1,0 0,0 0,0 1,0 0,0 1,0 0,0 1,-1z" />
<path style="fill:#131516" d="M39,431 l4,2 12,-18 -4,-2 -12,18 0,0 0,0 0,0 0,1 0,0 0,1 0,0 0,0 1,1 0,0 0,0 1,0 0,0 1,0 0,0 1,0 0,0 0,-1z" />
<path style="fill:#131516" d="M29,450 l4,2 10,-19 -4,-2 -10,19 0,0 0,0 0,0 0,1 0,0 0,1 0,0 0,0 1,1 0,0 1,0 0,0 0,0 1,0 0,0 1,0 0,-1 0,0z" />
<path style="fill:#131516" d="M20,470 l5,2 8,-20 -4,-2 -9,20 0,0 0,0 0,0 0,1 0,0 0,1 1,0 0,0 0,1 1,0 0,0 0,0 1,0 0,0 1,0 0,0 0,-1 1,0z" />
<path style="fill:#131516" d="M13,491 l5,1 7,-20 -5,-2 -7,21 0,0 0,0 0,0 0,1 0,0 0,1 0,0 1,0 0,1 0,0 1,0 0,0 1,0 0,0 1,0 0,-1 0,0 1,-1z" />
<path style="fill:#131516" d="M7,512 l5,1 6,-21 -5,-1 -6,21 0,0 0,0 0,1 0,0 0,1 0,0 1,1 0,0 0,0 1,0 0,0 1,0 0,0 1,0 0,0 0,-1 1,0 0,-1z" />
<path style="fill:#131516" d="M3,535 l5,0 4,-22 -5,-1 -4,23 0,0 0,0 0,0 0,1 0,0 0,0 1,1 0,0 0,0 1,0 0,0 1,0 0,0 1,0 0,0 0,-1 0,0 1,-1z" />
<path style="fill:#131516" d="M0,558 l5,0 3,-23 -5,0 -3,22 0,1 0,-1 0,1 0,0 1,1 0,0 0,0 1,1 0,0 0,0 1,0 0,0 1,0 0,0 0,-1 1,0 0,-1 0,0z" />
<path style="fill:#131516" d="M4,581 l1,-23 -5,0 0,23z" />
<path style="fill:#131516" d="M0,604 l5,0 -1,-23 -4,0 0,23 0,0 0,0 0,1 1,0 0,0 0,1 1,0 0,0 0,0 1,0 0,0 1,0 0,0 0,0 1,-1 0,0 0,-1 0,0z" />
<path style="fill:#131516" d="M3,627 l5,-1 -3,-22 -5,0 3,23 0,0 0,0 0,0 0,1 0,0 1,0 0,1 1,0 0,0 1,0 0,0 0,0 1,-1 0,0 0,0 1,-1 0,0 0,-1z" />
<path style="fill:#131516" d="M7,649 l5,-1 -4,-22 -5,1 4,22 0,0 0,0 0,1 1,0 0,0 0,1 1,0 0,0 0,0 1,0 0,0 1,0 0,-1 0,0 1,0 0,-1 0,0 0,-1z" />
<path style="fill:#131516" d="M13,671 l5,-2 -6,-21 -5,1 6,22 0,0 0,0 0,0 0,1 1,0 0,0 1,0 0,0 0,0 1,0 0,0 1,0 0,0 0,-1 1,0 0,-1 0,0 0,-1z" />
<path style="fill:#131516" d="M20,692 l5,-2 -7,-21 -5,2 7,20 0,1 0,-1 1,1 0,0 0,1 1,0 0,0 0,0 1,0 0,0 1,0 0,-1 0,0 1,0 0,-1 0,0 0,-1 0,0z" />
<path style="fill:#131516" d="M29,712 l4,-2 -8,-20 -5,2 9,19 0,1 0,-1 0,1 1,0 0,1 0,0 1,0 0,0 1,0 0,0 1,0 0,-1 0,0 0,0 1,-1 0,0 0,-1 -1,0z" />
<path style="fill:#131516" d="M39,731 l4,-3 -10,-19 -4,3 10,19 0,0 0,0 1,0 0,0 0,1 1,0 0,0 1,0 0,0 0,0 1,-1 0,0 0,0 1,-1 0,0 0,-1 0,0 -1,-1z" />
<path style="fill:#131516" d="M51,749 l4,-3 -12,-18 -4,3 12,18 0,0 0,0 0,0 0,1 1,0 0,0 1,0 0,0 1,0 0,0 0,-1 1,0 0,0 0,-1 0,0 0,-1 0,0 0,-1z" />
<path style="fill:#131516" d="M63,766 l4,-3 -12,-17 -4,3 12,17 0,0 0,0 1,0 0,1 1,0 0,0 0,0 1,0 0,0 1,0 0,-1 0,0 0,0 1,-1 0,0 0,-1 -1,0 0,-1z" />
<path style="fill:#131516" d="M77,782 l4,-3 -14,-16 -4,3 14,16 0,0 0,0 1,1 0,0 0,0 1,0 0,0 1,0 0,0 1,-1 0,0 0,0 0,-1 0,0 0,-1 0,0 0,-1 0,0z" />
<path style="fill:#131516" d="M92,797 l3,-3 -14,-15 -4,3 15,15 0,0 0,0 1,0 0,1 0,0 1,0 0,0 1,0 0,-1 0,0 1,0 0,-1 0,0 0,-1 0,0 0,0 0,-1 -1,0z" />
<path style="fill:#131516" d="M108,811 l3,-4 -16,-13 -3,3 16,14 0,0 0,0 1,0 0,0 0,0 1,0 0,0 1,0 0,0 0,-1 1,0 0,0 0,-1 0,0 0,-1 0,0 0,0 -1,-1z" />
<path style="fill:#131516" d="M125,823 l3,-4 -17,-12 -3,4 17,12 0,0 0,0 0,0 1,0 0,1 1,-1 0,0 1,0 0,0 0,-1 1,0 0,0 0,-1 0,0 0,-1 -1,0 0,0 0,-1z" />
<path style="fill:#131516" d="M143,834 l2,-4 -17,-11 -3,4 18,11 0,0 0,0 0,0 1,0 0,0 1,0 0,0 0,0 1,-1 0,0 0,0 0,-1 0,0 0,-1 0,0 0,0 0,-1 -1,0z" />
<path style="fill:#131516" d="M162,844 l2,-5 -19,-9 -2,4 18,9 1,1 -1,-1 1,1 0,0 1,0 0,0 1,-1 0,0 0,0 1,-1 0,0 0,0 0,-1 0,0 0,-1 -1,0 0,0 0,-1z" />
<path style="fill:#131516" d="M181,851 l2,-4 -20,-8 -1,5 19,7 0,0 0,0 0,0 1,1 0,-1 1,0 0,0 0,0 1,-1 0,0 0,0 0,-1 0,0 0,-1 0,0 -1,0 0,-1 0,0z" />
<path style="fill:#131516" d="M201,858 l1,-5 -20,-6 -1,4 20,7 0,0 0,0 0,0 1,0 0,0 1,-1 0,0 0,0 1,0 0,-1 0,0 0,-1 0,0 0,-1 0,0 -1,0 0,-1 -1,0z" />
<path style="fill:#131516" d="M222,862 l1,-4 -21,-5 -1,5 21,4 0,0 0,0 0,0 1,0 0,0 1,0 0,0 0,-1 0,0 0,-1 1,0 0,0 -1,-1 0,0 0,-1 0,0 -1,0 0,0z" />
<path style="fill:#131516" d="M243,865 l0,-5 -21,-2 0,4 21,3 0,0 0,0 0,0 1,0 0,0 1,0 0,-1 0,0 0,-1 1,0 0,0 0,-1 -1,0 0,-1 0,0 -1,0 0,-1 -1,0z" />
<path style="fill:#131516" d="M265,861 l-22,-1 0,5 22,1z" />

</svg>
