<?xml version="1.0" encoding="iso-8859-1"?>
<!DOCTYPE svg PUBLIC "-//W3C//DTD SVG 20000303 Stylable//EN"
"http://www.w3.org/TR/2000/03/WD-SVG-20000303/DTD/svg-20000303-stylable.dtd">

<svg width="7.5940in" height="6.5830in" viewBox="0 0 999 866">

<path style="fill:#f5f184" d="M265,2 l468,0 22,1 21,3 20,4 20,6 20,8 18,10 18,10 16,13 16,13 15,15 14,16 12,17 12,18 10,19 8,20 8,21 6,21 4,22 2,23 1,23 -1,23 -2,23 -4,22 -6,21 -8,21 -8,20 -10,19 -12,18 -12,17 -14,16 -15,14 -16,14 -17,12 -17,11 -19,9 -19,8 -20,6 -21,5 -21,3 -21,1 -1,24 -3,24 -3,23 -6,22 -6,22 -8,20 -9,20 -10,19 -11,18 -13,17 -13,15 -14,14 -15,13 -16,11 -16,10 -17,8 -18,7 -18,5 -19,3 -19,1 -19,-1 -19,-3 -18,-5 -18,-7 -17,-8 -17,-10 -16,-11 -14,-13 -15,-14 -13,-15 -12,-17 -11,-18 -10,-19 -9,-20 -8,-20 -6,-22 -5,-22 -4,-23 -2,-24 -1,-24 -21,-1 -21,-3 -21,-5 -20,-6 -19,-8 -18,-9 -18,-11 -17,-12 -15,-14 -15,-14 -14,-16 -12,-17 -12,-18 -10,-19 -8,-20 -8,-21 -6,-21 -4,-22 -2,-23 -1,-23 1,-23 2,-23 4,-22 6,-21 8,-21 8,-20 10,-19 12,-18 12,-17 14,-16 15,-15 16,-13 16,-13 18,-10 18,-10 20,-8 20,-6 20,-4 21,-3 22,-1z" />
<path style="fill:#131516" d="M755,0 l0,0 -22,0 0,4 22,1 0,-5 0,5 0,0 1,0 0,0 1,0 0,-1 0,0 0,-1 0,0 0,-1 0,0 0,0 0,-1 -1,0 0,0 -1,-1 0,0z" />
<path style="fill:#131516" d="M776,3 l0,0 -21,-3 0,5 21,3 0,-5 0,5 0,0 1,0 0,0 0,-1 1,0 0,0 0,-1 0,0 0,-1 0,0 0,0 0,-1 0,0 -1,0 0,-1 -1,0z" />
<path style="fill:#131516" d="M797,8 l0,0 -21,-5 -1,5 21,4 1,-4 -1,4 0,0 1,0 0,0 1,0 0,0 0,-1 1,0 0,0 0,-1 0,0 0,-1 0,0 -1,0 0,-1 -1,0 0,0z" />
<path style="fill:#131516" d="M817,14 l0,0 -20,-6 -1,4 19,7 2,-5 -2,5 1,0 1,0 0,0 0,-1 1,0 0,0 0,-1 0,0 1,0 0,-1 0,0 -1,-1 0,0 0,0 -1,-1 0,0z" />
<path style="fill:#131516" d="M837,22 l-1,0 -19,-8 -2,5 20,7 2,-4 -2,4 0,1 1,0 0,-1 1,0 0,0 0,0 1,-1 0,0 0,0 0,-1 0,0 0,-1 0,0 -1,0 0,-1 -1,0z" />
<path style="fill:#131516" d="M855,32 l0,-1 -18,-9 -3,4 19,10 2,-4 -2,4 0,0 1,0 0,0 1,0 0,0 1,-1 0,0 0,0 0,-1 0,0 0,-1 0,0 0,0 0,-1 0,0 -1,-1z" />
<path style="fill:#131516" d="M873,42 l0,0 -18,-10 -2,4 17,10 3,-4 -3,4 1,1 0,0 1,0 0,0 1,0 0,-1 0,0 1,0 0,-1 0,0 0,-1 0,0 0,-1 0,0 -1,0 0,-1z" />
<path style="fill:#131516" d="M890,55 l0,0 -17,-13 -3,4 17,13 3,-4 -3,4 0,0 1,0 0,0 1,0 0,0 1,0 0,-1 0,0 1,0 0,-1 0,0 0,-1 0,0 0,-1 -1,0 0,0z" />
<path style="fill:#131516" d="M906,68 l0,0 -16,-13 -3,3 16,14 3,-4 -3,4 0,0 1,0 0,1 0,0 1,-1 0,0 1,0 0,0 0,-1 0,0 1,-1 0,0 0,0 -1,-1 0,0 0,-1z" />
<path style="fill:#131516" d="M921,83 l0,0 -15,-15 -3,4 14,15 4,-4 -4,4 1,0 0,0 1,0 0,0 1,0 0,0 0,0 1,0 0,-1 0,0 0,-1 0,0 0,0 0,-1 0,0 0,-1z" />
<path style="fill:#131516" d="M935,99 l0,0 -14,-16 -4,3 14,16 4,-3 -4,3 0,1 1,0 0,0 1,0 0,0 1,0 0,0 0,0 1,-1 0,0 0,0 0,-1 0,0 0,-1 0,0 0,-1z" />
<path style="fill:#131516" d="M947,117 l0,0 -12,-18 -4,3 12,17 4,-2 -4,2 1,1 0,0 1,0 0,0 1,0 0,0 0,0 1,0 0,0 0,-1 1,0 0,-1 0,0 0,-1 0,0 -1,0z" />
<path style="fill:#131516" d="M959,135 l0,0 -12,-18 -4,2 12,18 4,-2 -4,2 0,1 0,0 1,0 0,0 1,0 0,0 1,0 0,0 0,0 1,-1 0,0 0,0 0,-1 0,0 0,-1 0,0z" />
<path style="fill:#131516" d="M969,154 l0,0 -10,-19 -4,2 10,19 4,-2 -4,2 0,1 0,0 1,0 0,0 1,0 0,0 0,0 1,0 0,0 1,0 0,-1 0,0 0,-1 0,0 0,-1 0,0z" />
<path style="fill:#131516" d="M978,174 l0,0 -9,-20 -4,2 8,20 5,-2 -5,2 1,0 0,1 0,0 1,0 0,0 1,0 0,0 0,0 1,0 0,0 0,-1 1,0 0,-1 0,0 0,-1 0,0z" />
<path style="fill:#131516" d="M985,195 l0,0 -7,-21 -5,2 7,20 5,-1 -5,1 1,1 0,0 0,1 1,0 0,0 1,0 0,0 1,0 0,0 0,-1 1,0 0,0 0,-1 0,0 0,-1 0,0z" />
<path style="fill:#131516" d="M991,217 l0,-1 -6,-21 -5,1 6,22 5,-1 -5,1 0,0 1,1 0,0 0,0 1,0 0,0 1,0 0,0 1,0 0,0 0,0 1,-1 0,0 0,-1 0,0 0,-1z" />
<path style="fill:#131516" d="M995,239 l0,0 -4,-22 -5,0 4,22 5,0 -5,0 1,1 0,0 0,1 0,0 1,0 0,0 1,0 0,0 1,0 0,0 0,0 1,-1 0,0 0,0 0,-1 0,0z" />
<path style="fill:#131516" d="M998,262 l0,-1 -3,-22 -5,0 3,23 5,0 -5,0 0,0 0,1 1,0 0,1 0,0 1,0 0,0 1,0 0,0 0,0 1,0 0,-1 0,0 1,-1 0,0 0,-1z" />
<path style="fill:#131516" d="M999,285 l-1,-23 -5,0 1,23z" />
<path style="fill:#131516" d="M998,308 l0,0 1,-23 -5,0 -1,23 5,0 -5,0 0,0 0,1 0,0 1,1 0,0 0,0 1,0 0,0 1,0 0,0 0,0 1,0 0,-1 0,0 1,0 0,-1z" />
<path style="fill:#131516" d="M995,331 l0,0 3,-23 -5,0 -3,22 5,1 -5,-1 0,1 0,0 1,1 0,0 0,0 1,1 0,0 0,0 1,0 0,0 1,0 0,-1 1,0 0,0 0,-1 0,0z" />
<path style="fill:#131516" d="M991,353 l0,0 4,-22 -5,-1 -4,22 5,1 -5,-1 0,1 0,0 0,1 1,0 0,0 0,1 1,0 0,0 1,0 0,0 0,0 1,0 0,-1 0,0 1,0 0,-1z" />
<path style="fill:#131516" d="M985,375 l0,0 6,-22 -5,-1 -6,21 5,2 -5,-2 0,1 0,0 0,1 1,0 0,1 0,0 1,0 0,0 1,0 0,0 0,0 1,0 0,0 1,0 0,-1 0,0z" />
<path style="fill:#131516" d="M978,396 l0,0 7,-21 -5,-2 -7,21 5,2 -5,-2 0,0 0,1 0,0 0,1 1,0 0,1 0,0 1,0 0,0 1,0 0,0 0,0 1,0 0,-1 0,0 1,0z" />
<path style="fill:#131516" d="M969,416 l0,0 9,-20 -5,-2 -8,20 4,2 -4,-2 -1,0 0,1 0,0 0,1 1,0 0,0 0,1 1,0 0,0 1,0 0,0 0,0 1,0 0,-1 1,0 0,0z" />
<path style="fill:#131516" d="M959,435 l0,0 10,-19 -4,-2 -10,18 4,3 -4,-3 -1,1 0,1 0,0 0,0 1,1 0,0 0,0 1,1 0,0 0,0 1,0 0,0 1,0 0,0 0,-1 1,0z" />
<path style="fill:#131516" d="M947,453 l0,0 12,-18 -4,-3 -12,18 4,3 -4,-3 0,1 0,0 0,1 0,0 0,1 0,0 1,0 0,1 0,0 1,0 0,0 1,0 0,0 1,0 0,-1 0,0z" />
<path style="fill:#131516" d="M935,470 l0,0 12,-17 -4,-3 -12,17 4,3 -4,-3 0,1 -1,0 0,1 0,0 0,1 1,0 0,0 0,1 1,0 0,0 1,0 0,0 0,0 1,0 0,0 1,-1z" />
<path style="fill:#131516" d="M921,486 l0,0 14,-16 -4,-3 -14,16 4,3 -4,-3 0,1 0,0 0,1 0,0 0,0 0,1 0,0 0,0 1,1 0,0 1,0 0,0 0,0 1,0 0,0 1,-1z" />
<path style="fill:#131516" d="M906,501 l0,0 15,-15 -4,-3 -15,15 4,3 -4,-3 0,0 0,1 0,0 0,0 0,1 0,0 0,1 0,0 1,0 0,1 1,0 0,0 0,0 1,0 0,-1 1,0z" />
<path style="fill:#131516" d="M890,515 l0,0 16,-14 -3,-3 -16,13 3,4 -3,-4 -1,1 0,0 0,0 0,1 0,0 0,1 0,0 0,1 1,0 0,0 1,0 0,0 0,0 1,0 0,0 1,0z" />
<path style="fill:#131516" d="M873,527 l0,0 17,-12 -3,-4 -17,12 3,4 -3,-4 0,1 -1,0 0,0 0,1 0,0 0,1 0,0 1,1 0,0 0,0 1,0 0,1 0,0 1,0 0,-1 1,0z" />
<path style="fill:#131516" d="M855,538 l0,0 18,-11 -3,-4 -17,11 2,4 -2,-4 -1,0 0,1 0,0 -1,1 0,0 0,0 1,1 0,0 0,1 0,0 1,0 0,0 1,0 0,0 1,0 0,0z" />
<path style="fill:#131516" d="M836,548 l0,0 19,-10 -2,-4 -19,9 2,5 -2,-5 0,1 -1,0 0,0 0,1 0,0 0,1 0,0 0,1 0,0 1,0 0,0 0,1 1,0 0,0 1,0 0,0z" />
<path style="fill:#131516" d="M817,555 l0,0 19,-7 -2,-5 -19,8 2,4 -2,-4 0,0 -1,1 0,0 0,0 0,1 -1,0 1,1 0,0 0,0 0,1 0,0 1,0 0,1 1,0 0,0 1,-1z" />
<path style="fill:#131516" d="M797,562 l0,0 20,-7 -2,-4 -20,6 2,5 -2,-5 0,0 -1,1 0,0 0,0 0,1 0,0 0,1 0,0 0,1 0,0 0,0 1,1 0,0 1,0 0,0 1,0z" />
<path style="fill:#131516" d="M776,566 l0,0 21,-4 -1,-5 -21,5 1,4 -1,-4 -1,0 0,0 0,0 -1,1 0,0 0,1 0,0 0,0 0,1 0,0 1,1 0,0 0,0 1,0 0,0 1,0z" />
<path style="fill:#131516" d="M754,569 l1,0 21,-3 -1,-4 -21,2 0,5 0,-5 -1,1 0,0 0,0 -1,0 0,1 0,0 0,1 0,0 0,0 0,1 0,0 1,1 0,0 1,0 0,0 1,0z" />
<path style="fill:#131516" d="M733,570 l21,-1 0,-5 -21,1z" />
<path style="fill:#131516" d="M734,592 l0,0 1,-24 -5,0 -1,24 5,0 -5,0 1,0 0,1 0,0 0,1 1,0 0,0 0,0 1,0 0,0 1,0 0,0 0,0 1,-1 0,0 0,0 0,-1z" />
<path style="fill:#131516" d="M732,616 l0,0 2,-24 -5,0 -2,23 5,1 -5,-1 0,1 0,0 0,1 1,0 0,1 0,0 1,0 0,0 1,0 0,0 1,0 0,0 0,-1 1,0 0,-1 0,0z" />
<path style="fill:#131516" d="M728,639 l0,0 4,-23 -5,-1 -4,23 5,1 -5,-1 0,1 0,0 1,1 0,0 0,0 0,1 1,0 0,0 1,0 0,0 1,0 0,0 0,-1 1,0 0,0 0,-1z" />
<path style="fill:#131516" d="M723,662 l0,0 5,-23 -5,-1 -5,23 5,1 -5,-1 0,0 0,1 0,0 0,0 1,1 0,0 0,0 1,0 0,0 1,0 0,0 1,0 0,0 0,0 1,-1 0,0z" />
<path style="fill:#131516" d="M716,684 l0,-1 7,-21 -5,-2 -6,22 4,2 -4,-2 0,1 0,0 0,1 0,0 0,0 0,1 1,0 0,0 1,0 0,0 1,0 0,0 0,0 1,-1 0,0 0,-1z" />
<path style="fill:#131516" d="M708,704 l0,0 8,-20 -4,-2 -8,21 4,1 -4,-1 0,0 0,1 0,0 0,1 0,0 0,0 1,1 0,0 1,0 0,0 1,0 0,0 0,0 1,-1 0,0 0,-1z" />
<path style="fill:#131516" d="M699,725 l0,-1 9,-20 -4,-1 -9,19 4,3 -4,-3 0,1 0,0 0,1 0,0 0,1 0,0 1,0 0,1 0,0 1,0 0,0 1,0 0,0 1,-1 0,0 0,-1z" />
<path style="fill:#131516" d="M689,744 l0,-1 10,-18 -4,-3 -10,19 4,3 -4,-3 0,1 -1,0 1,1 0,0 0,1 0,0 0,0 1,0 0,1 1,0 0,0 0,0 1,0 0,-1 1,0 0,-1z" />
<path style="fill:#131516" d="M678,762 l0,-1 11,-17 -4,-3 -11,18 4,3 -4,-3 -1,0 0,1 0,0 0,1 1,0 0,1 0,0 0,0 1,0 0,0 1,1 0,-1 1,0 0,0 0,0 1,-1z" />
<path style="fill:#131516" d="M665,778 l0,0 13,-16 -4,-3 -13,16 4,3 -4,-3 0,1 0,0 0,1 0,0 0,1 0,0 1,0 0,1 0,0 1,0 0,0 1,0 0,0 1,0 0,0 0,-1z" />
<path style="fill:#131516" d="M652,794 l0,0 13,-16 -3,-3 -14,16 4,3 -4,-3 0,0 0,1 0,0 0,1 0,0 0,0 0,1 1,0 0,0 0,1 1,0 0,0 1,0 0,-1 1,0 0,0z" />
<path style="fill:#131516" d="M638,808 l0,0 14,-14 -4,-3 -14,14 4,3 -4,-3 0,0 0,1 0,0 0,1 0,0 0,0 0,1 0,0 1,0 0,1 0,0 1,0 0,0 1,0 0,-1 1,0z" />
<path style="fill:#131516" d="M622,821 l1,0 15,-13 -4,-3 -14,12 2,4 -2,-4 -1,1 0,0 0,1 0,0 0,0 0,1 0,0 0,1 1,0 0,0 0,0 1,1 0,0 1,-1 0,0 1,0z" />
<path style="fill:#131516" d="M606,833 l1,-1 15,-11 -2,-4 -16,12 2,4 -2,-4 -1,0 0,0 0,1 0,0 0,1 0,0 0,0 0,1 1,0 0,0 0,1 1,0 0,0 1,0 0,0 1,-1z" />
<path style="fill:#131516" d="M590,842 l0,0 16,-9 -2,-5 -16,10 2,4 -2,-4 -1,1 0,0 0,0 -1,1 0,0 0,1 1,0 0,1 0,0 0,0 1,0 0,1 1,0 0,0 1,0 0,-1z" />
<path style="fill:#131516" d="M572,851 l1,0 17,-9 -2,-4 -17,8 1,5 -1,-5 -1,1 0,0 -1,0 0,1 0,0 0,1 0,0 0,1 1,0 0,0 0,1 1,0 0,0 1,0 0,0 1,0z" />
<path style="fill:#131516" d="M555,857 l0,0 17,-6 -1,-5 -18,7 2,4 -2,-4 0,0 -1,0 0,1 0,0 0,1 0,0 0,0 0,1 0,0 0,1 0,0 1,0 0,0 1,0 0,0 1,0z" />
<path style="fill:#131516" d="M536,862 l0,0 19,-5 -2,-4 -18,4 1,5 -1,-5 -1,1 0,0 0,0 -1,1 0,0 0,0 0,1 0,0 0,1 1,0 0,1 0,0 1,0 0,0 1,0 0,0z" />
<path style="fill:#131516" d="M517,865 l0,0 19,-3 -1,-5 -18,3 0,5 0,-5 -1,0 0,1 -1,0 0,0 0,1 0,0 -1,1 1,0 0,0 0,1 0,0 0,1 1,0 0,0 1,0 0,0z" />
<path style="fill:#131516" d="M498,866 l19,-1 0,-5 -19,1z" />
<path style="fill:#131516" d="M478,865 l0,0 20,1 0,-5 -19,-1 -1,5 1,-5 -1,0 0,0 -1,1 0,0 0,0 -1,1 0,0 0,1 0,0 0,0 0,1 1,0 0,0 0,1 1,0 0,0z" />
<path style="fill:#131516" d="M459,862 l0,0 19,3 1,-5 -19,-3 -1,5 1,-5 0,0 -1,0 0,1 -1,0 0,0 0,1 0,0 -1,0 0,1 0,0 1,1 0,0 0,0 0,1 1,0 0,0z" />
<path style="fill:#131516" d="M441,857 l0,0 18,5 1,-5 -18,-4 -1,4 1,-4 0,0 -1,0 0,0 -1,0 0,0 0,1 -1,0 0,0 0,1 0,0 0,1 0,0 1,1 0,0 0,0 1,0z" />
<path style="fill:#131516" d="M423,851 l0,0 18,6 1,-4 -17,-7 -2,5 2,-5 -1,0 0,0 -1,0 0,0 -1,1 0,0 0,0 0,1 -1,0 0,1 0,0 1,0 0,1 0,0 0,0 1,1z" />
<path style="fill:#131516" d="M405,842 l1,0 17,9 2,-5 -17,-8 -3,4 3,-4 -1,0 0,0 -1,0 0,0 -1,0 0,1 0,0 -1,0 0,1 0,0 0,1 0,0 0,0 1,1 0,0 1,0z" />
<path style="fill:#131516" d="M389,832 l0,1 16,9 3,-4 -17,-10 -2,4 2,-4 0,0 -1,0 0,0 0,0 -1,0 0,1 -1,0 0,0 0,1 0,0 0,1 0,0 0,0 0,1 1,0 0,1z" />
<path style="fill:#131516" d="M373,821 l0,0 16,11 3,-3 -16,-12 -3,4 3,-4 -1,0 0,0 -1,0 0,0 0,0 -1,0 0,0 0,1 -1,0 0,1 0,0 0,0 0,1 0,0 1,1 0,0z" />
<path style="fill:#131516" d="M358,808 l0,0 15,13 3,-4 -15,-12 -3,3 3,-3 0,-1 -1,0 0,0 -1,0 0,0 -1,0 0,1 0,0 -1,0 0,1 0,0 0,0 0,1 0,0 1,1 0,0z" />
<path style="fill:#131516" d="M344,794 l0,0 14,14 3,-3 -14,-14 -3,3 3,-3 0,-1 -1,0 0,0 -1,0 0,0 -1,0 0,0 0,1 -1,0 0,0 0,1 0,0 0,1 0,0 0,1 1,0z" />
<path style="fill:#131516" d="M330,778 l0,0 14,16 3,-3 -13,-16 -4,3 4,-3 0,0 -1,0 0,-1 -1,0 0,0 -1,1 0,0 0,0 -1,0 0,1 0,0 0,0 0,1 0,0 0,1 0,0z" />
<path style="fill:#131516" d="M318,761 l0,1 12,16 4,-3 -12,-16 -4,2 4,-2 0,-1 -1,0 0,0 -1,0 0,0 -1,0 0,0 0,0 -1,0 0,1 0,0 0,1 0,0 0,1 0,0 0,1z" />
<path style="fill:#131516" d="M307,743 l0,1 11,17 4,-2 -11,-18 -4,2 4,-2 0,0 -1,-1 0,0 -1,0 0,0 -1,0 0,0 0,0 -1,1 0,0 0,0 0,1 -1,0 0,1 1,0 0,1z" />
<path style="fill:#131516" d="M297,724 l0,1 10,18 4,-2 -10,-19 -4,2 4,-2 -1,0 0,-1 0,0 -1,0 0,0 -1,0 0,0 0,0 -1,1 0,0 0,0 -1,1 0,0 0,1 0,0 1,1z" />
<path style="fill:#131516" d="M288,704 l0,0 9,20 4,-2 -9,-19 -4,1 4,-1 0,-1 -1,0 0,-1 0,0 -1,0 0,0 -1,0 0,0 -1,1 0,0 0,0 0,1 -1,0 0,0 0,1 1,0z" />
<path style="fill:#131516" d="M280,683 l0,1 8,20 4,-1 -8,-21 -4,1 4,-1 0,-1 0,0 -1,0 0,0 0,-1 -1,0 0,0 -1,1 0,0 0,0 -1,0 0,1 0,0 0,1 0,0 0,1z" />
<path style="fill:#131516" d="M273,662 l0,0 7,21 4,-1 -6,-22 -5,2 5,-2 0,0 -1,-1 0,0 0,0 -1,0 0,0 -1,0 0,0 0,0 -1,0 0,0 0,1 -1,0 0,1 0,0 0,1z" />
<path style="fill:#131516" d="M268,639 l0,0 5,23 5,-1 -5,-23 -5,1 5,-1 0,0 -1,-1 0,0 0,0 -1,-1 0,0 0,0 -1,0 0,0 -1,1 0,0 0,0 -1,1 0,0 0,1 0,0z" />
<path style="fill:#131516" d="M264,616 l1,0 3,23 5,-1 -4,-23 -5,1 5,-1 0,0 0,-1 0,0 -1,0 0,-1 -1,0 0,0 -1,0 0,0 0,1 -1,0 0,0 0,1 0,0 -1,0 1,1z" />
<path style="fill:#131516" d="M262,592 l0,0 2,24 5,-1 -2,-23 -5,0 5,0 0,-1 0,0 -1,-1 0,0 0,0 -1,0 0,0 -1,0 0,0 0,0 -1,0 0,0 0,1 -1,0 0,1 0,0z" />
<path style="fill:#131516" d="M262,568 l0,24 5,0 -1,-24z" />
<path style="fill:#131516" d="M242,569 l1,0 21,1 0,-5 -21,-1 -1,5 1,-5 -1,0 0,1 -1,0 0,0 0,0 -1,1 0,0 0,1 0,0 0,1 1,0 0,0 0,1 0,0 1,0 1,0z" />
<path style="fill:#131516" d="M221,566 l0,0 21,3 1,-5 -21,-2 -1,4 1,-4 -1,0 0,0 -1,0 0,0 0,0 0,1 -1,0 0,1 0,0 0,1 0,0 1,0 0,1 0,0 1,0 0,0z" />
<path style="fill:#131516" d="M200,562 l1,0 20,4 1,-4 -20,-5 -2,5 2,-5 -1,0 0,0 -1,0 0,1 -1,0 0,0 0,1 0,0 0,0 0,1 0,0 0,1 0,0 1,0 0,1 1,0z" />
<path style="fill:#131516" d="M181,555 l0,0 19,7 2,-5 -20,-6 -1,4 1,-4 0,0 -1,0 0,0 -1,0 0,0 0,1 -1,0 0,1 0,0 0,0 0,1 0,0 0,1 1,0 0,0 1,0z" />
<path style="fill:#131516" d="M161,548 l0,0 20,7 1,-4 -19,-8 -2,5 2,-5 0,0 -1,0 0,0 -1,0 0,0 0,1 -1,0 0,1 0,0 0,0 0,1 0,0 0,1 0,0 1,0 0,1z" />
<path style="fill:#131516" d="M143,538 l0,0 18,10 2,-5 -18,-9 -2,4 2,-4 -1,0 0,0 -1,0 0,0 0,0 -1,0 0,1 0,0 0,0 -1,1 0,0 1,1 0,0 0,1 0,0 1,0z" />
<path style="fill:#131516" d="M125,527 l0,0 18,11 2,-4 -18,-11 -2,4 2,-4 0,0 -1,0 0,0 -1,0 0,0 0,0 -1,1 0,0 0,0 0,1 0,0 0,1 0,0 0,1 0,0 1,0z" />
<path style="fill:#131516" d="M108,515 l0,0 17,12 3,-4 -17,-12 -3,4 3,-4 -1,0 0,0 -1,0 0,0 0,0 -1,0 0,0 0,1 -1,0 0,0 0,1 0,0 0,1 0,0 1,1 0,0z" />
<path style="fill:#131516" d="M92,501 l0,0 16,14 3,-4 -16,-13 -3,3 3,-3 0,-1 -1,0 0,0 -1,0 0,0 0,0 -1,1 0,0 0,0 -1,1 0,0 0,0 0,1 0,0 1,1 0,0z" />
<path style="fill:#131516" d="M77,486 l0,0 15,15 3,-3 -14,-15 -4,3 4,-3 -1,0 0,-1 -1,0 0,0 -1,0 0,0 0,1 -1,0 0,0 0,1 0,0 -1,1 0,0 1,0 0,1 0,0z" />
<path style="fill:#131516" d="M63,470 l0,0 14,16 4,-3 -14,-16 -4,3 4,-3 0,0 -1,0 0,-1 -1,0 0,0 -1,0 0,1 0,0 -1,0 0,1 0,0 0,0 0,1 0,0 0,1 0,0z" />
<path style="fill:#131516" d="M51,453 l0,0 12,17 4,-3 -12,-17 -4,3 4,-3 -1,0 0,0 -1,-1 0,0 -1,0 0,0 0,1 -1,0 0,0 0,0 -1,1 0,0 0,1 0,0 0,1 1,0z" />
<path style="fill:#131516" d="M39,435 l0,0 12,18 4,-3 -12,-18 -4,3 4,-3 0,0 0,0 -1,-1 0,0 -1,0 0,0 -1,0 0,1 0,0 -1,0 0,1 0,0 0,0 0,1 0,0 0,1z" />
<path style="fill:#131516" d="M29,416 l0,0 10,19 4,-3 -10,-18 -4,2 4,-2 0,-1 0,0 -1,-1 0,0 -1,0 0,0 0,0 -1,1 0,0 -1,0 0,0 0,1 0,0 0,1 0,0 0,1z" />
<path style="fill:#131516" d="M20,396 l0,0 9,20 4,-2 -8,-20 -5,2 5,-2 -1,-1 0,0 0,0 -1,-1 0,0 -1,0 0,0 0,1 -1,0 0,0 0,0 -1,1 0,0 0,1 0,0 0,1z" />
<path style="fill:#131516" d="M13,375 l0,0 7,21 5,-2 -7,-21 -5,2 5,-2 -1,0 0,-1 0,0 -1,0 0,0 -1,0 0,0 -1,0 0,0 0,0 -1,1 0,0 0,0 0,1 0,0 0,1z" />
<path style="fill:#131516" d="M7,353 l0,0 6,22 5,-2 -6,-21 -5,1 5,-1 0,-1 -1,0 0,0 0,-1 -1,0 0,0 -1,0 0,0 -1,0 0,1 0,0 -1,0 0,1 0,0 0,1 0,0z" />
<path style="fill:#131516" d="M3,331 l0,0 4,22 5,-1 -4,-22 -5,1 5,-1 -1,0 0,-1 0,0 0,-1 -1,0 0,0 -1,0 0,0 -1,0 0,1 0,0 -1,0 0,0 0,1 0,0 0,1z" />
<path style="fill:#131516" d="M0,308 l0,0 3,23 5,-1 -3,-22 -5,0 5,0 0,-1 0,0 -1,-1 0,0 0,0 -1,0 0,0 -1,0 0,0 0,0 -1,0 0,0 0,1 -1,0 0,1 0,0z" />
<path style="fill:#131516" d="M0,285 l0,23 5,0 -1,-23z" />
<path style="fill:#131516" d="M0,261 l0,1 0,23 4,0 1,-23 -5,-1 5,1 0,-1 0,0 0,-1 -1,0 0,0 0,-1 -1,0 0,0 -1,0 0,0 0,1 -1,0 0,0 0,0 -1,1 0,1z" />
<path style="fill:#131516" d="M3,239 l0,0 -3,22 5,1 3,-23 -5,0 5,0 0,0 0,-1 -1,0 0,-1 0,0 -1,0 0,0 0,0 -1,0 0,0 -1,0 0,0 -1,0 0,1 0,0 0,1z" />
<path style="fill:#131516" d="M7,216 l0,1 -4,22 5,0 4,-22 -5,-1 5,1 0,0 0,-1 0,0 -1,0 0,-1 0,0 -1,0 0,0 -1,0 0,0 0,0 -1,0 0,0 0,1 -1,0 0,1z" />
<path style="fill:#131516" d="M13,195 l0,0 -6,21 5,2 6,-22 -5,-1 5,1 0,0 0,-1 0,0 -1,-1 0,0 0,0 -1,-1 0,0 -1,0 0,0 0,0 -1,0 0,1 -1,0 0,0 0,1z" />
<path style="fill:#131516" d="M20,174 l0,0 -7,21 5,1 7,-20 -5,-2 5,2 0,-1 0,0 0,-1 0,0 -1,-1 0,0 0,0 -1,0 0,0 -1,-1 0,1 0,0 -1,0 0,0 0,1 -1,0z" />
<path style="fill:#131516" d="M29,154 l0,0 -9,20 5,2 8,-20 -4,-2 4,2 1,-1 0,0 0,-1 -1,0 0,0 0,-1 0,0 -1,0 0,0 -1,0 0,0 -1,0 0,0 0,0 -1,1 0,0z" />
<path style="fill:#131516" d="M39,135 l0,0 -10,19 4,2 10,-19 -4,-2 4,2 1,0 0,-1 0,0 0,-1 -1,0 0,-1 0,0 -1,0 0,0 0,0 -1,0 0,0 -1,0 0,0 0,0 -1,1z" />
<path style="fill:#131516" d="M51,117 l0,0 -12,18 4,2 12,-18 -4,-2 4,2 0,0 0,-1 0,0 0,-1 0,0 0,0 -1,-1 0,0 0,0 -1,0 0,0 -1,0 0,0 -1,0 0,0 0,1z" />
<path style="fill:#131516" d="M63,99 l0,0 -12,18 4,2 12,-17 -4,-3 4,3 0,0 1,-1 0,0 0,-1 -1,0 0,0 0,-1 0,0 -1,0 0,0 -1,-1 0,0 0,1 -1,0 0,0 -1,0z" />
<path style="fill:#131516" d="M77,83 l0,0 -14,16 4,3 14,-16 -4,-3 4,3 0,0 0,0 0,-1 0,0 0,-1 0,0 0,-1 0,0 -1,0 0,0 -1,0 0,-1 -1,1 0,0 0,0 -1,0z" />
<path style="fill:#131516" d="M92,68 l0,0 -15,15 4,4 14,-15 -3,-4 3,4 1,-1 0,0 0,-1 0,0 0,0 0,-1 0,0 -1,-1 0,0 0,0 -1,0 0,0 -1,0 0,0 0,0 -1,0z" />
<path style="fill:#131516" d="M108,55 l0,0 -16,13 3,4 16,-14 -3,-3 3,3 1,0 0,0 0,-1 0,0 0,-1 0,0 0,-1 -1,0 0,0 0,0 -1,-1 0,0 -1,0 0,0 0,0 -1,1z" />
<path style="fill:#131516" d="M125,42 l0,0 -17,13 3,4 17,-13 -3,-4 3,4 0,0 0,0 1,-1 0,0 0,-1 0,0 0,-1 -1,0 0,0 0,-1 -1,0 0,0 -1,0 0,0 -1,0 0,0z" />
<path style="fill:#131516" d="M143,31 l0,1 -18,10 3,4 17,-10 -2,-5 2,5 1,-1 0,0 0,0 0,-1 0,0 0,-1 0,0 0,-1 0,0 -1,0 0,-1 0,0 -1,0 0,0 -1,0 0,1z" />
<path style="fill:#131516" d="M162,22 l-1,0 -18,9 2,5 19,-10 -2,-4 2,4 0,0 0,0 1,-1 0,0 0,-1 0,0 0,-1 0,0 -1,0 0,-1 0,0 -1,0 0,0 -1,0 0,0 -1,0z" />
<path style="fill:#131516" d="M181,14 l0,0 -19,8 1,4 20,-7 -2,-5 2,5 0,-1 0,0 1,0 0,-1 0,0 0,-1 0,0 0,-1 0,0 -1,0 0,-1 0,0 -1,0 0,0 -1,0 0,0z" />
<path style="fill:#131516" d="M201,8 l0,0 -20,6 1,5 20,-7 -1,-4 1,4 1,0 0,0 1,0 0,-1 0,0 0,-1 0,0 0,-1 0,0 -1,0 0,-1 0,0 -1,0 0,0 -1,0 0,0z" />
<path style="fill:#131516" d="M222,3 l0,0 -21,5 1,4 21,-4 -1,-5 1,5 0,0 1,-1 0,0 0,0 0,-1 1,0 0,0 -1,-1 0,0 0,-1 0,0 0,0 -1,-1 0,0 -1,0 0,0z" />
<path style="fill:#131516" d="M243,0 l0,0 -21,3 0,5 21,-3 0,-5 0,5 1,0 0,0 1,0 0,-1 0,0 1,-1 0,0 0,-1 -1,0 0,0 0,-1 0,0 -1,0 0,0 -1,-1 0,0z" />
<path style="fill:#131516" d="M265,0 l-22,0 0,5 22,-1z" />

</svg>
